<?xml version="1.0" encoding="UTF-8" standalone="no"?>
<svg
   viewBox="0 0 666.66669 496.81332"
   height="496.81332"
   width="666.66669"
   xml:space="preserve"
   id="svg2"
   version="1.1"
   sodipodi:docname="404.svg"
   inkscape:version="1.1 (c68e22c387, 2021-05-23)"
   xmlns:inkscape="http://www.inkscape.org/namespaces/inkscape"
   xmlns:sodipodi="http://sodipodi.sourceforge.net/DTD/sodipodi-0.dtd"
   xmlns="http://www.w3.org/2000/svg"
   xmlns:svg="http://www.w3.org/2000/svg"
   xmlns:rdf="http://www.w3.org/1999/02/22-rdf-syntax-ns#"
   xmlns:cc="http://creativecommons.org/ns#"
   xmlns:dc="http://purl.org/dc/elements/1.1/"><sodipodi:namedview
     id="namedview302"
     pagecolor="#ffffff"
     bordercolor="#999999"
     borderopacity="1"
     inkscape:pageshadow="0"
     inkscape:pageopacity="0"
     inkscape:pagecheckerboard="0"
     showgrid="false"
     inkscape:zoom="1.1841728"
     inkscape:cx="327.65487"
     inkscape:cy="194.65064"
     inkscape:window-width="1920"
     inkscape:window-height="1017"
     inkscape:window-x="-8"
     inkscape:window-y="-8"
     inkscape:window-maximized="1"
     inkscape:current-layer="g12" /><metadata
     id="metadata8"><rdf:RDF><cc:Work
         rdf:about=""><dc:format>image/svg+xml</dc:format><dc:type
           rdf:resource="http://purl.org/dc/dcmitype/StillImage" /></cc:Work></rdf:RDF></metadata><defs
     id="defs6" /><g
     transform="matrix(1.3333333,0,0,-1.3333333,0,496.81333)"
     id="g10"><g
       transform="matrix(0.1,0,0,0.1,2.2392428,9.8526679)"
       id="g12"><path
         id="path14"
         style="fill:#eeeeee;fill-opacity:1;fill-rule:nonzero;stroke:none"
         d="m 0,449.129 h 5000 v 2.5 H 0 Z" /><path
         id="path16"
         style="fill:#eeeeee;fill-opacity:1;fill-rule:nonzero;stroke:none"
         d="m 4167.79,290.672 h 331.22 v -2.5 h -331.22 v 2.5" /><path
         id="path18"
         style="fill:#eeeeee;fill-opacity:1;fill-rule:nonzero;stroke:none"
         d="m 3225.27,261.039 h 86.9297 v 2.5 H 3225.27 Z" /><path
         id="path20"
         style="fill:#eeeeee;fill-opacity:1;fill-rule:nonzero;stroke:none"
         d="m 3965.86,383.539 h 191.92 v -2.5 h -191.92 v 2.5" /><path
         id="path22"
         style="fill:#eeeeee;fill-opacity:1;fill-rule:nonzero;stroke:none"
         d="m 524.59,364.23 h 431.934 v 2.5 H 524.59 Z" /><path
         id="path24"
         style="fill:#eeeeee;fill-opacity:1;fill-rule:nonzero;stroke:none"
         d="m 1045.56,364.23 h 63.332 v 2.5 h -63.332 z" /><path
         id="path26"
         style="fill:#eeeeee;fill-opacity:1;fill-rule:nonzero;stroke:none"
         d="m 1314.71,322.012 h 936.758 v 2.5 H 1314.71 Z" /><path
         id="path28"
         style="fill:#eeeeee;fill-opacity:1;fill-rule:nonzero;stroke:none"
         d="m 439.152,3723.59 c -30.101,0 -54.582,-24.48 -54.582,-54.57 V 954.699 c 0,-30.097 24.481,-54.578 54.582,-54.578 H 2370.14 c 30.08,0 54.57,24.481 54.57,54.578 V 3669.02 c 0,30.09 -24.49,54.57 -54.57,54.57 H 439.152 M 2370.14,897.621 H 439.152 c -31.476,0 -57.082,25.598 -57.082,57.078 V 3669.02 c 0,31.46 25.606,57.07 57.082,57.07 H 2370.14 c 31.46,0 57.07,-25.61 57.07,-57.07 V 954.699 c 0,-31.48 -25.61,-57.078 -57.07,-57.078" /><path
         id="path30"
         style="fill:#eeeeee;fill-opacity:1;fill-rule:nonzero;stroke:none"
         d="m 2602.12,3723.59 c -30.09,0 -54.57,-24.48 -54.57,-54.57 V 954.699 c 0,-30.097 24.48,-54.578 54.57,-54.578 h 1930.99 c 30.09,0 54.58,24.481 54.58,54.578 V 3669.02 c 0,30.09 -24.49,54.57 -54.58,54.57 H 2602.12 M 4533.11,897.621 H 2602.12 c -31.47,0 -57.07,25.598 -57.07,57.078 V 3669.02 c 0,31.46 25.6,57.07 57.07,57.07 h 1930.99 c 31.47,0 57.08,-25.61 57.08,-57.07 V 954.699 c 0,-31.48 -25.61,-57.078 -57.08,-57.078" /><path
         id="path32"
         style="fill:#fcfdfd;fill-opacity:1;fill-rule:nonzero;stroke:none"
         d="m 3367.11,1805.61 h 222.973 v 94.8594 H 3367.11 Z" /><path
         id="path34"
         style="fill:#fcfdfd;fill-opacity:1;fill-rule:nonzero;stroke:none"
         d="m 3097.29,1805.61 h 222.98 v 94.8594 h -222.98 z" /><path
         id="path36"
         style="fill:#fcfdfd;fill-opacity:1;fill-rule:nonzero;stroke:none"
         d="m 2827.48,1805.61 h 222.969 v 94.8594 H 2827.48 Z" /><path
         id="path38"
         style="fill:#fcfdfd;fill-opacity:1;fill-rule:nonzero;stroke:none"
         d="m 3502.02,1673.55 h 222.969 v 94.8477 H 3502.02 Z" /><path
         id="path40"
         style="fill:#fcfdfd;fill-opacity:1;fill-rule:nonzero;stroke:none"
         d="m 3232.2,1673.55 h 222.98 v 94.8477 H 3232.2 Z" /><path
         id="path42"
         style="fill:#fcfdfd;fill-opacity:1;fill-rule:nonzero;stroke:none"
         d="m 2962.39,1673.55 h 222.969 v 94.8477 H 2962.39 Z" /><path
         id="path44"
         style="fill:#fcfdfd;fill-opacity:1;fill-rule:nonzero;stroke:none"
         d="m 2692.57,1673.55 h 222.98 v 94.8477 h -222.98 z" /><path
         id="path46"
         style="fill:#fcfdfd;fill-opacity:1;fill-rule:nonzero;stroke:none"
         d="m 3936.94,1541.48 h 222.98 v 94.86 h -222.98 v -94.86" /><path
         id="path48"
         style="fill:#fcfdfd;fill-opacity:1;fill-rule:nonzero;stroke:none"
         d="m 3890.1,1636.34 h -222.97 v -94.86 h 222.97 v 94.86" /><path
         id="path50"
         style="fill:#fcfdfd;fill-opacity:1;fill-rule:nonzero;stroke:none"
         d="m 3097.29,1541.48 h 222.98 v 94.8594 h -222.98 z" /><path
         id="path52"
         style="fill:#fcfdfd;fill-opacity:1;fill-rule:nonzero;stroke:none"
         d="m 2827.48,1541.48 h 222.969 v 94.8594 H 2827.48 Z" /><path
         id="path54"
         style="fill:#fcfdfd;fill-opacity:1;fill-rule:nonzero;stroke:none"
         d="m 2557.67,1541.48 h 222.969 v 94.8594 H 2557.67 Z" /><path
         id="path56"
         style="fill:#fcfdfd;fill-opacity:1;fill-rule:nonzero;stroke:none"
         d="m 3802.04,1409.41 h 222.97 v 94.86 h -222.97 v -94.86" /><path
         id="path58"
         style="fill:#fcfdfd;fill-opacity:1;fill-rule:nonzero;stroke:none"
         d="m 3232.2,1409.42 h 222.98 v 94.8477 H 3232.2 Z" /><path
         id="path60"
         style="fill:#fcfdfd;fill-opacity:1;fill-rule:nonzero;stroke:none"
         d="m 2962.39,1409.42 h 222.969 v 94.8477 H 2962.39 Z" /><path
         id="path62"
         style="fill:#fcfdfd;fill-opacity:1;fill-rule:nonzero;stroke:none"
         d="m 2692.57,1409.42 h 222.98 v 94.8477 h -222.98 z" /><path
         id="path64"
         style="fill:#fcfdfd;fill-opacity:1;fill-rule:nonzero;stroke:none"
         d="m 1863.1,3245.99 h -222.98 v -94.86 h 222.98 v 94.86" /><path
         id="path66"
         style="fill:#fcfdfd;fill-opacity:1;fill-rule:nonzero;stroke:none"
         d="m 1593.29,3245.99 h -222.98 v -94.86 h 222.98 v 94.86" /><path
         id="path68"
         style="fill:#fcfdfd;fill-opacity:1;fill-rule:nonzero;stroke:none"
         d="M 1775.03,3019.07 H 1998 v 94.86 h -222.97 v -94.86" /><path
         id="path70"
         style="fill:#fcfdfd;fill-opacity:1;fill-rule:nonzero;stroke:none"
         d="m 1505.21,3019.07 h 222.98 v 94.86 h -222.98 v -94.86" /><path
         id="path72"
         style="fill:#fcfdfd;fill-opacity:1;fill-rule:nonzero;stroke:none"
         d="M 1188.56,3113.93 H 965.586 v -94.86 h 222.974 v 94.86" /><path
         id="path74"
         style="fill:#fcfdfd;fill-opacity:1;fill-rule:nonzero;stroke:none"
         d="M 918.746,3113.93 H 695.77 v -94.86 h 222.976 v 94.86" /><path
         id="path76"
         style="fill:#fcfdfd;fill-opacity:1;fill-rule:nonzero;stroke:none"
         d="m 1593.29,2981.86 h -222.98 v -94.85 h 222.98 v 94.85" /><path
         id="path78"
         style="fill:#fcfdfd;fill-opacity:1;fill-rule:nonzero;stroke:none"
         d="m 3826.45,2378.12 h 222.973 v 94.8594 H 3826.45 Z" /><path
         id="path80"
         style="fill:#fcfdfd;fill-opacity:1;fill-rule:nonzero;stroke:none"
         d="m 3356.62,2378.12 h 222.98 v 94.8594 h -222.98 z" /><path
         id="path82"
         style="fill:#fcfdfd;fill-opacity:1;fill-rule:nonzero;stroke:none"
         d="m 3961.36,2246.06 h 222.97 v 94.85 h -222.97 v -94.85" /><path
         id="path84"
         style="fill:#fcfdfd;fill-opacity:1;fill-rule:nonzero;stroke:none"
         d="m 3691.54,2246.06 h 222.98 v 94.8516 h -222.98 z" /><path
         id="path86"
         style="fill:#fcfdfd;fill-opacity:1;fill-rule:nonzero;stroke:none"
         d="m 1389.35,2511.4 h 222.98 v 94.86 h -222.98 v -94.86" /><path
         id="path88"
         style="fill:#fcfdfd;fill-opacity:1;fill-rule:nonzero;stroke:none"
         d="M 1042.44,2606.26 H 819.465 v -94.86 h 222.975 v 94.86" /><path
         id="path90"
         style="fill:#fcfdfd;fill-opacity:1;fill-rule:nonzero;stroke:none"
         d="m 1524.26,2379.34 h 222.97 v 94.86 h -222.97 v -94.86" /><path
         id="path92"
         style="fill:#fcfdfd;fill-opacity:1;fill-rule:nonzero;stroke:none"
         d="m 1377.35,2474.2 h -222.97 v -94.86 h 222.97 v 94.86" /><path
         id="path94"
         style="fill:#fcfdfd;fill-opacity:1;fill-rule:nonzero;stroke:none"
         d="m 4049.42,2208.85 h -222.97 v -94.86 h 222.97 v 94.86" /><path
         id="path96"
         style="fill:#fcfdfd;fill-opacity:1;fill-rule:nonzero;stroke:none"
         d="m 3356.62,2113.99 h 222.98 v 94.8633 h -222.98 z" /><path
         id="path98"
         style="fill:#fcfdfd;fill-opacity:1;fill-rule:nonzero;stroke:none"
         d="m 830.68,2887.01 h 222.97 v 94.85 H 830.68 v -94.85" /><path
         id="path100"
         style="fill:#fcfdfd;fill-opacity:1;fill-rule:nonzero;stroke:none"
         d="m 3989.88,3242.43 v -94.86 h 222.97 v 94.86 h -222.97" /><path
         id="path102"
         style="fill:#fcfdfd;fill-opacity:1;fill-rule:nonzero;stroke:none"
         d="m 3943.04,3242.43 h -222.98 v -94.86 h 222.98 v 94.86" /><path
         id="path104"
         style="fill:#fcfdfd;fill-opacity:1;fill-rule:nonzero;stroke:none"
         d="m 4077.94,3110.37 h -222.97 v -94.86 h 222.97 v 94.86" /><path
         id="path106"
         style="fill:#fcfdfd;fill-opacity:1;fill-rule:nonzero;stroke:none"
         d="m 3004.17,3240.34 h -222.98 v -94.86 h 222.98 v 94.86" /><path
         id="path108"
         style="fill:#fcfdfd;fill-opacity:1;fill-rule:nonzero;stroke:none"
         d="m 2734.35,3240.34 h -222.97 v -94.86 h 222.97 v 94.86" /><path
         id="path110"
         style="fill:#fcfdfd;fill-opacity:1;fill-rule:nonzero;stroke:none"
         d="m 2916.1,3013.41 h 222.98 v 94.86 H 2916.1 v -94.86" /><path
         id="path112"
         style="fill:#fcfdfd;fill-opacity:1;fill-rule:nonzero;stroke:none"
         d="m 2646.29,3013.41 h 222.97 v 94.86 h -222.97 v -94.86" /><path
         id="path114"
         style="fill:#fcfdfd;fill-opacity:1;fill-rule:nonzero;stroke:none"
         d="m 2599.44,3108.27 h -222.97 v -94.86 h 222.97 v 94.86" /><path
         id="path116"
         style="fill:#fcfdfd;fill-opacity:1;fill-rule:nonzero;stroke:none"
         d="m 3051.01,2881.35 h 222.97 v 94.86 h -222.97 v -94.86" /><path
         id="path118"
         style="fill:#fcfdfd;fill-opacity:1;fill-rule:nonzero;stroke:none"
         d="m 2781.19,2881.35 h 222.98 v 94.86 h -222.98 v -94.86" /><path
         id="path120"
         style="fill:#fcfdfd;fill-opacity:1;fill-rule:nonzero;stroke:none"
         d="m 2511.38,2881.35 h 222.97 v 94.86 h -222.97 v -94.86" /><path
         id="path122"
         style="fill:#fcfdfd;fill-opacity:1;fill-rule:nonzero;stroke:none"
         d="M 3139.08,2844.14 H 2916.1 v -94.85 h 222.98 v 94.85" /><path
         id="path124"
         style="fill:#fcfdfd;fill-opacity:1;fill-rule:nonzero;stroke:none"
         d="m 2869.26,2844.14 h -222.97 v -94.85 h 222.97 v 94.85" /><path
         id="path126"
         style="fill:#fcfdfd;fill-opacity:1;fill-rule:nonzero;stroke:none"
         d="m 1325.53,1936.34 h -222.98 v -94.85 h 222.98 v 94.85" /><path
         id="path128"
         style="fill:#fcfdfd;fill-opacity:1;fill-rule:nonzero;stroke:none"
         d="m 832.738,1841.49 h 222.972 v 94.85 H 832.738 v -94.85" /><path
         id="path130"
         style="fill:#fcfdfd;fill-opacity:1;fill-rule:nonzero;stroke:none"
         d="m 2100.13,1924.29 h -222.98 v -94.87 h 222.98 v 94.87" /><path
         id="path132"
         style="fill:#fcfdfd;fill-opacity:1;fill-rule:nonzero;stroke:none"
         d="m 1237.46,1709.41 h 222.97 v 94.87 h -222.97 v -94.87" /><path
         id="path134"
         style="fill:#fcfdfd;fill-opacity:1;fill-rule:nonzero;stroke:none"
         d="m 967.652,1709.41 h 222.968 v 94.87 H 967.652 v -94.87" /><path
         id="path136"
         style="fill:#fcfdfd;fill-opacity:1;fill-rule:nonzero;stroke:none"
         d="m 2012.07,1697.36 h 222.97 v 94.86 h -222.97 v -94.86" /><path
         id="path138"
         style="fill:#fcfdfd;fill-opacity:1;fill-rule:nonzero;stroke:none"
         d="m 1965.22,1792.22 h -222.97 v -94.86 h 222.97 v 94.86" /><path
         id="path140"
         style="fill:#fcfdfd;fill-opacity:1;fill-rule:nonzero;stroke:none"
         d="m 2458.23,2124.34 h 222.98 v 94.86 h -222.98 v -94.86" /><path
         id="path142"
         style="fill:#fcfdfd;fill-opacity:1;fill-rule:nonzero;stroke:none"
         d="m 1059.3,2187.2 h 222.97 v 94.86 H 1059.3 v -94.86" /><path
         id="path144"
         style="fill:#fcfdfd;fill-opacity:1;fill-rule:nonzero;stroke:none"
         d="m 2154.13,2592.7 h 222.97 v 94.85 h -222.97 v -94.85" /><path
         id="path146"
         style="fill:#fcfdfd;fill-opacity:1;fill-rule:nonzero;stroke:none"
         d="m 2546.3,2351.26 h -222.97 v -94.86 h 222.97 v 94.86" /><path
         id="path148"
         style="fill:#fcfdfd;fill-opacity:1;fill-rule:nonzero;stroke:none"
         d="m 2816.11,2351.26 h -222.97 v -94.86 h 222.97 v 94.86" /><path
         id="path150"
         style="fill:#fcfdfd;fill-opacity:1;fill-rule:nonzero;stroke:none"
         d="m 3606.04,453.43 h 222.973 v 94.8594 H 3606.04 Z" /><path
         id="path152"
         style="fill:#fcfdfd;fill-opacity:1;fill-rule:nonzero;stroke:none"
         d="m 3740.95,585.5 h 222.97 v 94.852 H 3740.95 V 585.5" /><path
         id="path154"
         style="fill:#fcfdfd;fill-opacity:1;fill-rule:nonzero;stroke:none"
         d="m 1102.55,1577.35 h 222.98 v 94.86 h -222.98 v -94.86" /><path
         id="path156"
         style="fill:#fcfdfd;fill-opacity:1;fill-rule:nonzero;stroke:none"
         d="M 1055.71,1672.21 H 832.738 v -94.86 h 222.972 v 94.86" /><path
         id="path158"
         style="fill:#fcfdfd;fill-opacity:1;fill-rule:nonzero;stroke:none"
         d="m 1460.43,1540.15 h -222.97 v -94.86 h 222.97 v 94.86" /><path
         id="path160"
         style="fill:#fcfdfd;fill-opacity:1;fill-rule:nonzero;stroke:none"
         d="M 1190.62,1540.15 H 967.652 v -94.86 h 222.968 v 94.86" /><path
         id="path162"
         style="fill:#fcfdfd;fill-opacity:1;fill-rule:nonzero;stroke:none"
         d="m 1525.98,1079.94 h 222.97 v 94.87 h -222.97 v -94.87" /><path
         id="path164"
         style="fill:#fcfdfd;fill-opacity:1;fill-rule:nonzero;stroke:none"
         d="m 1256.16,1079.94 h 222.98 v 94.87 h -222.98 v -94.87" /><path
         id="path166"
         style="fill:#fcfdfd;fill-opacity:1;fill-rule:nonzero;stroke:none"
         d="m 986.344,1079.94 h 222.977 v 94.8672 H 986.344 Z" /><path
         id="path168"
         style="fill:#fcfdfd;fill-opacity:1;fill-rule:nonzero;stroke:none"
         d="m 716.531,1079.94 h 222.977 v 94.8672 H 716.531 Z" /><path
         id="path170"
         style="fill:#fcfdfd;fill-opacity:1;fill-rule:nonzero;stroke:none"
         d="m 1660.88,947.879 h 222.98 v 94.8633 h -222.98 z" /><path
         id="path172"
         style="fill:#fcfdfd;fill-opacity:1;fill-rule:nonzero;stroke:none"
         d="m 1614.04,1042.74 h -222.97 v -94.861 h 222.97 v 94.861" /><path
         id="path174"
         style="fill:#fcfdfd;fill-opacity:1;fill-rule:nonzero;stroke:none"
         d="m 851.441,947.879 h 222.969 v 94.8633 H 851.441 Z" /><path
         id="path176"
         style="fill:#fcfdfd;fill-opacity:1;fill-rule:nonzero;stroke:none"
         d="m 1795.79,815.82 h 222.973 v 94.8594 H 1795.79 Z" /><path
         id="path178"
         style="fill:#fcfdfd;fill-opacity:1;fill-rule:nonzero;stroke:none"
         d="M 1748.95,910.672 H 1525.98 V 815.82 h 222.97 v 94.852" /><path
         id="path180"
         style="fill:#fcfdfd;fill-opacity:1;fill-rule:nonzero;stroke:none"
         d="M 1479.14,910.672 H 1256.16 V 815.82 h 222.98 v 94.852" /><path
         id="path182"
         style="fill:#fcfdfd;fill-opacity:1;fill-rule:nonzero;stroke:none"
         d="m 1660.88,683.75 h 222.98 v 94.859 H 1660.88 V 683.75" /><path
         id="path184"
         style="fill:#fcfdfd;fill-opacity:1;fill-rule:nonzero;stroke:none"
         d="m 1391.07,683.75 h 222.97 v 94.859 H 1391.07 V 683.75" /><path
         id="path186"
         style="fill:#fcfdfd;fill-opacity:1;fill-rule:nonzero;stroke:none"
         d="m 1121.25,683.75 h 222.98 v 94.859 H 1121.25 V 683.75" /><path
         id="path188"
         style="fill:#fcfdfd;fill-opacity:1;fill-rule:nonzero;stroke:none"
         d="m 3351.35,1086.05 h 222.969 v 94.8477 H 3351.35 Z" /><path
         id="path190"
         style="fill:#fcfdfd;fill-opacity:1;fill-rule:nonzero;stroke:none"
         d="m 2781.51,1086.05 h 222.969 v 94.8477 H 2781.51 Z" /><path
         id="path192"
         style="fill:#fcfdfd;fill-opacity:1;fill-rule:nonzero;stroke:none"
         d="m 2511.69,1086.05 h 222.98 v 94.8477 h -222.98 z" /><path
         id="path194"
         style="fill:#fcfdfd;fill-opacity:1;fill-rule:nonzero;stroke:none"
         d="m 3486.25,953.98 h 222.98 v 94.8594 h -222.98 z" /><path
         id="path196"
         style="fill:#fcfdfd;fill-opacity:1;fill-rule:nonzero;stroke:none"
         d="m 2916.42,953.98 h 222.969 v 94.8594 H 2916.42 Z" /><path
         id="path198"
         style="fill:#fcfdfd;fill-opacity:1;fill-rule:nonzero;stroke:none"
         d="m 2646.6,953.98 h 222.98 v 94.8594 H 2646.6 Z" /><path
         id="path200"
         style="fill:#fcfdfd;fill-opacity:1;fill-rule:nonzero;stroke:none"
         d="m 2376.79,953.98 h 222.973 v 94.8594 H 2376.79 Z" /><path
         id="path202"
         style="fill:#fcfdfd;fill-opacity:1;fill-rule:nonzero;stroke:none"
         d="m 3621.16,821.91 h 222.98 v 94.8594 h -222.98 z" /><path
         id="path204"
         style="fill:#fcfdfd;fill-opacity:1;fill-rule:nonzero;stroke:none"
         d="m 3351.35,821.91 h 222.969 v 94.8594 H 3351.35 Z" /><path
         id="path206"
         style="fill:#fcfdfd;fill-opacity:1;fill-rule:nonzero;stroke:none"
         d="m 2781.51,821.91 h 222.969 v 94.8594 H 2781.51 Z" /><path
         id="path208"
         style="fill:#fcfdfd;fill-opacity:1;fill-rule:nonzero;stroke:none"
         d="m 2511.69,821.91 h 222.98 v 94.8594 h -222.98 z" /><path
         id="path210"
         style="fill:#fcfdfd;fill-opacity:1;fill-rule:nonzero;stroke:none"
         d="m 3186.23,689.84 h 222.98 v 94.8711 h -222.98 z" /><path
         id="path212"
         style="fill:#fcfdfd;fill-opacity:1;fill-rule:nonzero;stroke:none"
         d="m 2916.42,689.84 h 222.969 v 94.8711 H 2916.42 Z" /><path
         id="path214"
         style="fill:#fcfdfd;fill-opacity:1;fill-rule:nonzero;stroke:none"
         d="m 2646.6,689.84 h 222.98 v 94.8711 H 2646.6 Z" /><path
         id="path216"
         style="fill:#fcfdfd;fill-opacity:1;fill-rule:nonzero;stroke:none"
         d="m 2376.79,689.84 h 222.973 v 94.8711 H 2376.79 Z" /><path
         id="path218"
         style="fill:#e3e3e2;fill-opacity:1;fill-rule:nonzero;stroke:none"
         d="m 3090.31,1622.74 h 963.16 v 1101.75 h -963.16 z" /><path
         id="path220"
         style="fill:#e3e3e2;fill-opacity:1;fill-rule:nonzero;stroke:none"
         d="m 3092.1,1622.74 h 926.129 V 2724.49 H 3092.1 Z" /><path
         id="path222"
         style="fill:#f4f4f4;fill-opacity:1;fill-rule:nonzero;stroke:none"
         d="m 3060.29,1622.74 h 963.172 V 2724.49 H 3060.29 Z" /><path
         id="path224"
         style="fill:#ffffff;fill-opacity:1;fill-rule:nonzero;stroke:none"
         d="M 3103.99,1673.36 H 3981.4 V 2689.35 H 3103.99 Z" /><path
         id="path226"
         style="fill:#e3e3e2;fill-opacity:1;fill-rule:nonzero;stroke:none"
         d="m 3103.99,1673.36 h 27.4023 V 2689.35 H 3103.99 Z" /><path
         id="path228"
         style="fill:#e3e3e2;fill-opacity:1;fill-rule:nonzero;stroke:none"
         d="m 3128.46,1931.35 h 855.359 v 27.3984 H 3128.46 Z" /><path
         id="path230"
         style="fill:#f4f4f4;fill-opacity:1;fill-rule:nonzero;stroke:none"
         d="m 3103.99,1958.75 h 892.102 v 45.9883 H 3103.99 Z" /><path
         id="path232"
         style="fill:#e3e3e2;fill-opacity:1;fill-rule:nonzero;stroke:none"
         d="M 1059.03,1622.74 H 2022.2 V 2724.49 H 1059.03 V 1622.74" /><path
         id="path234"
         style="fill:#e3e3e2;fill-opacity:1;fill-rule:nonzero;stroke:none"
         d="m 1060.82,1622.74 h 926.13 V 2724.49 H 1060.82 V 1622.74" /><path
         id="path236"
         style="fill:#f4f4f4;fill-opacity:1;fill-rule:nonzero;stroke:none"
         d="m 1029.01,1622.74 h 963.17 V 2724.49 H 1029.01 V 1622.74" /><path
         id="path238"
         style="fill:#ffffff;fill-opacity:1;fill-rule:nonzero;stroke:none"
         d="m 1072.71,1673.36 h 877.41 V 2689.35 H 1072.71 V 1673.36" /><path
         id="path240"
         style="fill:#e3e3e2;fill-opacity:1;fill-rule:nonzero;stroke:none"
         d="m 1072.71,1673.36 h 27.4 v 1015.99 h -27.4 V 1673.36" /><path
         id="path242"
         style="fill:#e3e3e2;fill-opacity:1;fill-rule:nonzero;stroke:none"
         d="m 1097.18,1958.75 v -27.4 h 855.36 v 27.4 h -855.36" /><path
         id="path244"
         style="fill:#f4f4f4;fill-opacity:1;fill-rule:nonzero;stroke:none"
         d="m 1072.71,1958.75 h 892.1 v 45.99 h -892.1 v -45.99" /><path
         id="path246"
         style="fill:#f8f8f9;fill-opacity:1;fill-rule:nonzero;stroke:none"
         d="M 4438.89,113.23 C 4438.89,50.6914 3570.83,0 2500,0 1429.18,0 561.113,50.6914 561.113,113.23 c 0,62.54 868.067,113.239 1938.887,113.239 1070.83,0 1938.89,-50.699 1938.89,-113.239" /><path
         id="path248"
         style="fill:#1d2a30;fill-opacity:1;fill-rule:nonzero;stroke:none"
         d="m 893.824,371.469 c 0,0 -13.883,101.742 -78.945,112.883 -65.066,11.128 -45.445,60.32 -62.395,79.359 -16.953,19.039 -61.222,-37.129 -23.3,-91.563 37.929,-54.418 6.925,-37.328 23.3,-87.929 16.375,-50.61 147.289,-97.09 141.34,-12.75" /><path
         id="path250"
         style="fill:#45555c;fill-opacity:1;fill-rule:nonzero;stroke:none"
         d="m 839.477,367.711 c -14.297,16.148 -34.618,34.379 -56.258,38.73 -14.024,2.809 -25.301,10.219 -34.668,17.571 0.32,2.109 0.574,4.136 0.574,6.34 -0.008,8.046 -3.496,18.199 -19.941,41.796 -10.782,15.481 -14.918,31.09 -14.93,45.082 -0.024,28.52 17.109,50.27 30.07,50.27 3.043,0 5.856,-1.199 8.16,-3.789 16.95,-19.039 -2.671,-68.231 62.395,-79.359 16.793,-2.883 30.18,-11.793 40.793,-23.43 0.605,-17.172 1.93,-33.09 3.711,-47.703 -16.551,-13.598 -20.785,-30.328 -19.906,-45.508" /><path
         id="path252"
         style="fill:#45555c;fill-opacity:1;fill-rule:nonzero;stroke:none"
         d="m 867.773,419.172 c -1.05,9.308 -1.906,19.148 -2.5,29.5 5.153,-7.613 9.438,-15.762 12.989,-23.82 -1.965,-0.981 -3.985,-2.032 -6.059,-3.141 -1.543,-0.832 -3.019,-1.68 -4.43,-2.539" /><path
         id="path254"
         style="fill:#1d2a30;fill-opacity:1;fill-rule:nonzero;stroke:none"
         d="m 895.18,307.371 -0.313,0.668 c -3.234,7.109 -30.531,70.152 -30.531,173.5 0,28.941 2.141,61.039 7.547,95.973 9.183,59.359 27.336,105.886 43.367,149.847 16.008,43.93 29.949,85.391 29.953,134.039 0.008,40.094 -9.492,84.864 -34.644,139.612 -34.899,75.99 -71.758,142.98 -99.786,204.42 -28.05,61.44 -47.179,117.24 -47.16,170.78 0.004,24.37 3.934,48.29 12.789,72.25 0.868,2.34 -0.328,4.94 -2.664,5.8 -2.336,0.87 -4.933,-0.33 -5.797,-2.66 -9.242,-24.99 -13.355,-50.05 -13.351,-75.39 0.019,-55.73 19.754,-112.65 47.973,-174.53 28.246,-61.88 65.066,-128.8 99.796,-204.442 24.731,-53.867 33.813,-97.199 33.821,-135.84 0.004,-46.867 -13.422,-87.109 -29.41,-130.949 -15.969,-43.808 -34.454,-91.117 -43.805,-151.558 -5.481,-35.403 -7.652,-67.961 -7.652,-97.352 0.003,-111.957 31.523,-177.641 31.734,-178.09 1.082,-2.238 3.777,-3.187 6.023,-2.097 2.246,1.078 3.188,3.769 2.11,6.019" /><path
         id="path256"
         style="fill:#1d2a30;fill-opacity:1;fill-rule:nonzero;stroke:none"
         d="m 853.555,325.738 c 0,0 -42.055,63.383 18.648,95.973 60.695,32.578 72.86,6.348 110.418,29.769 37.559,23.43 66.019,80.211 72.419,43.891 6.4,-36.332 -36.98,-57.051 -21.64,-73.66 C 1048.74,405.09 931.309,297.18 853.555,325.738" /><path
         id="path258"
         style="fill:#1d2a30;fill-opacity:1;fill-rule:nonzero;stroke:none"
         d="m 754.352,1397.1 c 0,0 -40.989,124.54 52.203,127.15 93.187,2.61 -9.528,-113.88 -52.203,-127.15" /><path
         id="path260"
         style="fill:#1d2a30;fill-opacity:1;fill-rule:nonzero;stroke:none"
         d="m 835.281,1301.36 c 0,0 27.77,113.24 93.922,89.35 66.145,-23.88 -27.988,-91.44 -93.922,-89.35" /><path
         id="path262"
         style="fill:#1d2a30;fill-opacity:1;fill-rule:nonzero;stroke:none"
         d="m 723.074,1291.54 c 0,0 9.969,90.37 -60.219,92.16 -70.179,1.8 -38.945,-77.57 60.219,-92.16" /><path
         id="path264"
         style="fill:#1d2a30;fill-opacity:1;fill-rule:nonzero;stroke:none"
         d="m 769.77,1107.2 c 0,0 -94.2,83.97 -128.071,21.48 -33.879,-62.49 71.055,-75.52 128.071,-21.48" /><path
         id="path266"
         style="fill:#1d2a30;fill-opacity:1;fill-rule:nonzero;stroke:none"
         d="m 936.43,1122.1 c 0,0 17.707,139.46 93.8,95.72 76.09,-43.75 -27.52,-109.65 -93.8,-95.72" /><path
         id="path268"
         style="fill:#1d2a30;fill-opacity:1;fill-rule:nonzero;stroke:none"
         d="m 1003.38,922.422 c 0,0 -56.169,140.918 48.2,125.038 104.37,-15.88 25.47,-90.839 -48.2,-125.038" /><path
         id="path270"
         style="fill:#1d2a30;fill-opacity:1;fill-rule:nonzero;stroke:none"
         d="m 843.227,872.141 c 0,0 -88.161,103.847 -155.528,70.918 -67.367,-32.938 -12.304,-136.18 155.528,-70.918" /><path
         id="path272"
         style="fill:#1d2a30;fill-opacity:1;fill-rule:nonzero;stroke:none"
         d="m 923.223,642.051 c 0,0 75.097,166.758 141.877,110.558 66.77,-56.211 -42.6,-140.23 -141.877,-110.558" /><path
         id="path274"
         style="fill:#1d2a30;fill-opacity:1;fill-rule:nonzero;stroke:none"
         d="m 814.086,651.809 c 0,0 19.844,129.363 -54.508,118.961 -74.344,-10.411 -54.82,-89.54 54.508,-118.961" /><path
         id="path276"
         style="fill:#45555c;fill-opacity:1;fill-rule:nonzero;stroke:none"
         d="m 754.352,1397.1 c 0,0 -8.969,27.25 -8.977,56.53 -0.012,33.3 11.578,69.23 61.18,70.62 1.027,0.03 2.035,0.04 3.019,0.04 25.153,0 34.844,-9.34 34.879,-22.98 0.074,-30.33 -47.621,-81.93 -79.324,-99.43 -3.391,-1.87 -6.602,-3.35 -9.547,-4.37 -0.414,-0.15 -0.824,-0.28 -1.23,-0.41" /><path
         id="path278"
         style="fill:#45555c;fill-opacity:1;fill-rule:nonzero;stroke:none"
         d="m 838.309,1301.31 c -1.016,0 -2.024,0.02 -3.028,0.05 0,0 22.731,92.66 76.028,92.66 5.625,0 11.582,-1.03 17.894,-3.31 15.902,-5.74 22.539,-14.01 22.535,-23.22 -0.023,-28.54 -63.746,-66.18 -113.429,-66.18" /><path
         id="path280"
         style="fill:#45555c;fill-opacity:1;fill-rule:nonzero;stroke:none"
         d="m 723.074,1291.54 c -62.625,9.22 -98.16,44.27 -98.164,68.39 -0.004,13.65 11.363,23.8 35.629,23.8 0.758,0 1.535,-0.01 2.316,-0.03 54.629,-1.39 60.7,-56.44 60.708,-80.78 0.003,-6.93 -0.489,-11.38 -0.489,-11.38" /><path
         id="path282"
         style="fill:#45555c;fill-opacity:1;fill-rule:nonzero;stroke:none"
         d="m 685.105,1073.29 c -28.042,0.01 -49.972,11.48 -49.996,32.93 -0.004,6.56 2.039,14.07 6.59,22.46 9.188,16.95 22.805,23.12 37.785,23.12 40.246,0 90.286,-44.6 90.286,-44.6 -13.434,-12.74 -29.524,-21.74 -45.84,-27.26 -13.235,-4.47 -26.61,-6.65 -38.825,-6.65" /><path
         id="path284"
         style="fill:#45555c;fill-opacity:1;fill-rule:nonzero;stroke:none"
         d="m 955.664,1120.2 c -5.523,0 -10.937,0.42 -16.156,1.32 -1.031,0.17 -2.063,0.37 -3.078,0.58 0,0 13.242,104.22 65.97,104.22 8.27,0 17.51,-2.56 27.83,-8.5 18.94,-10.89 26.75,-23.15 26.76,-35.22 0.01,-2.61 -0.35,-5.22 -1.05,-7.79 -5.95,-22.14 -36.32,-42.41 -69.596,-50.67 -10.16,-2.53 -20.594,-3.94 -30.68,-3.94" /><path
         id="path286"
         style="fill:#45555c;fill-opacity:1;fill-rule:nonzero;stroke:none"
         d="m 1003.38,922.422 c 0,0 -15.107,37.91 -15.095,72.18 0.016,28.288 10.328,54.108 47.935,54.108 4.69,0 9.79,-0.4 15.36,-1.25 36.18,-5.5 50.34,-18.11 50.32,-33.66 -0.01,-13.64 -10.94,-29.55 -27.49,-44.921 -7.77,-7.207 -16.78,-14.309 -26.47,-21 -13.98,-9.629 -29.38,-18.41 -44.56,-25.457" /><path
         id="path288"
         style="fill:#45555c;fill-opacity:1;fill-rule:nonzero;stroke:none"
         d="m 744.852,850.941 c -56.364,0.008 -85.137,27.168 -85.153,53.418 -0.008,14.911 9.25,29.532 28,38.7 9.223,4.511 18.824,6.453 28.547,6.453 61.297,0 126.981,-77.371 126.981,-77.371 -38.895,-15.129 -71.711,-21.2 -98.375,-21.2" /><path
         id="path290"
         style="fill:#45555c;fill-opacity:1;fill-rule:nonzero;stroke:none"
         d="m 965.965,635.879 c -14.094,0 -28.516,1.922 -42.742,6.172 0,0 55,122.129 112.717,122.129 9.73,0 19.53,-3.469 29.16,-11.571 14.24,-11.988 20.47,-25.25 20.49,-38.398 0.06,-39.652 -56.35,-78.332 -119.625,-78.332" /><path
         id="path292"
         style="fill:#45555c;fill-opacity:1;fill-rule:nonzero;stroke:none"
         d="m 814.086,651.809 c -65.66,17.671 -98.93,53.269 -98.926,81.152 0.004,18.531 14.727,33.648 44.418,37.809 2.879,0.41 5.606,0.601 8.207,0.601 41.215,0 48.695,-48.621 48.703,-83.851 0,-20.008 -2.402,-35.711 -2.402,-35.711" /><path
         id="path294"
         style="fill:#1d2a30;fill-opacity:1;fill-rule:nonzero;stroke:none"
         d="m 695.973,1318.65 c 0.226,-0.24 40.371,-60.19 96.48,-91.69 1.067,-0.6 2.328,-0.73 3.5,-0.38 1.172,0.35 2.149,1.16 2.711,2.24 0.004,0.01 0.547,1.06 1.582,2.98 3.621,6.74 13.117,23.91 24.711,41.13 11.512,17.21 25.481,34.51 36.598,41.07 2.136,1.28 2.832,4.06 1.547,6.19 -1.282,2.14 -4.051,2.83 -6.188,1.55 -7.855,-4.74 -15.617,-12.59 -23.191,-21.75 -22.59,-27.42 -42.985,-66.88 -43.071,-67.01 l 4.004,-2.08 2.207,3.94 c -26.761,14.96 -50.226,37.22 -66.894,55.73 -8.336,9.25 -14.989,17.57 -19.539,23.55 -2.278,2.99 -4.032,5.4 -5.207,7.05 -1.18,1.65 -1.758,2.52 -1.762,2.52 -1.391,2.07 -4.195,2.62 -6.262,1.23 -2.07,-1.4 -2.617,-4.2 -1.226,-6.27" /><path
         id="path296"
         style="fill:#1d2a30;fill-opacity:1;fill-rule:nonzero;stroke:none"
         d="m 697.594,1111.04 c 0,0 0.867,0.03 2.625,0.03 16.375,0.04 105.726,-2.76 177.136,-56.84 1.032,-0.77 2.333,-1.07 3.598,-0.82 1.266,0.25 2.356,1.02 3.012,2.13 0,0 0.664,1.12 1.98,3.23 9.153,14.77 49.875,76.32 100.004,105.73 2.149,1.27 2.867,4.03 1.602,6.18 -1.266,2.15 -4.031,2.86 -6.18,1.6 -60.238,-35.61 -104.945,-111.91 -105.18,-112.15 l 3.887,-2.3 2.723,3.6 c -74.301,56.07 -165.297,58.61 -182.582,58.66 -1.864,0 -2.871,-0.03 -2.918,-0.03 -2.492,-0.08 -4.446,-2.17 -4.363,-4.66 0.078,-2.49 2.164,-4.44 4.656,-4.36" /><path
         id="path298"
         style="fill:#1d2a30;fill-opacity:1;fill-rule:nonzero;stroke:none"
         d="m 1029.89,990.75 c 0,0 -0.66,-1.738 -1.95,-4.949 -4.53,-11.219 -16.66,-40.012 -33.678,-70.77 -16.989,-30.75 -39.008,-63.472 -62.606,-82.351 l 2.821,-3.52 2.265,3.899 c -0.105,0.062 -29.183,16.921 -69.015,34.031 -39.864,17.082 -90.368,34.5 -134,35.39 -2.493,0.051 -4.551,-1.929 -4.602,-4.421 -0.047,-2.489 1.934,-4.547 4.426,-4.598 41.406,-0.781 91.32,-17.77 130.617,-34.672 19.66,-8.437 36.699,-16.84 48.809,-23.117 6.054,-3.141 10.878,-5.75 14.179,-7.57 3.301,-1.821 5.055,-2.84 5.059,-2.84 1.613,-0.942 3.629,-0.793 5.086,0.379 28.89,23.238 53.851,63.589 71.949,98.238 18.05,34.641 29.04,63.562 29.08,63.672 0.88,2.328 -0.29,4.929 -2.62,5.82 -2.33,0.879 -4.93,-0.289 -5.82,-2.621" /><path
         id="path300"
         style="fill:#1d2a30;fill-opacity:1;fill-rule:nonzero;stroke:none"
         d="m 764.164,726.75 c 0.039,-0.07 14.387,-28.09 34.149,-59.258 9.886,-15.594 21.121,-31.961 32.66,-46.082 11.566,-14.109 23.328,-25.988 34.875,-32.621 2.019,-1.16 4.574,-0.59 5.918,1.313 l 0.402,0.539 c 4.352,5.82 43.801,56.031 123.406,79.91 2.387,0.719 3.742,3.23 3.024,5.621 -0.715,2.387 -3.231,3.738 -5.618,3.027 C 905.281,652.84 864.742,595.77 864.406,595.32 l 3.68,-2.609 2.238,3.91 c -9.801,5.57 -21.199,16.809 -32.363,30.5 -16.801,20.539 -33.301,46.539 -45.539,67.348 -6.121,10.402 -11.188,19.523 -14.715,26.019 -3.531,6.512 -5.508,10.371 -5.512,10.383 -1.136,2.211 -3.855,3.09 -6.074,1.961 -2.219,-1.141 -3.094,-3.863 -1.957,-6.082" /><path
         id="path302"
         style="fill:#1d2a30;fill-opacity:1;fill-rule:nonzero;stroke:none"
         d="m 860.012,340.859 c 0,0 -36.063,57.403 -76.793,65.582 -40.735,8.168 -58.281,55.079 -73.313,26.86 -15.027,-28.211 26.422,-121.75 150.106,-92.442" /><path
         id="path304"
         style="fill:#4870c0;fill-opacity:1;fill-rule:nonzero;stroke:none"
         d="m 713.09,115.551 h 300.77 l 20.13,242.898 H 692.965 L 713.09,115.551" /><path
         id="path306"
         style="fill:#4870c0;fill-opacity:1;fill-rule:nonzero;stroke:none"
         d="m 685.941,312.43 h 355.079 l 4.54,51.468 H 681.398 l 4.543,-51.468" /><path
         id="path308"
         style="fill:#799bd7;fill-opacity:1;fill-rule:nonzero;stroke:none"
         d="M 1041.02,312.43 H 685.941 l -4.543,51.468 h 364.162 l -4.54,-51.468" /><path
         id="path348"
         style="fill:#1d2a30;fill-opacity:1;fill-rule:nonzero;stroke:none"
         d="m 4429.47,2667.82 c 0,-32.6 -178.3,-60.6 -433.7,-72.9 -6.8,-0.3 -13.6,-0.6 -20.5,-1 -9.1,-0.31 -18.3,-0.71 -27.6,-1.1 -38.3,-1.51 -78.1,-2.6 -119.1,-3.5 -6.1,0 -12.2,-0.11 -18.4,-0.31 -3.5,0 -7,-0.09 -10.5,-0.09 -31.5,-0.51 -63.7,-0.71 -96.4,-0.71 -59.2,0 -116.7,0.8 -171.8,2.21 -13.5,0.4 -26.9,0.8 -40.1,1.3 -100.5,3.3 -191.7,8.99 -268.5,16.4 -150.7,14.6 -245.8,35.89 -245.8,59.7 0,35.9 216,66.1 513.1,76.1 7.7,0.29 15.5,0.49 23.3,0.8 20.7,0.6 41.7,1.1 63.1,1.49 25.7,0.5 51.9,0.81 78.4,1.01 2,0 3.9,0.1 5.8,0.1 h 0.1 c 14,0.1 28.2,0.1 42.4,0.1 74.8,0 147,-1.21 214.9,-3.61 10.9,-0.29 21.6,-0.69 32.2,-1.1 14.2,-0.59 28.1,-1.19 41.9,-1.8 h 0.1 c 3.6,-0.2 7.3,-0.39 10.9,-0.59 9.4,-0.4 18.7,-0.91 27.9,-1.4 236.3,-13.21 398.3,-40 398.3,-71.1" /><path
         id="path350"
         style="fill:#ffffff;fill-opacity:1;fill-rule:nonzero;stroke:none"
         d="m 4429.47,2667.82 c 0,0.03 0,0.05 0,0.08 0,-0.03 0,-0.05 0,-0.08 m -1452.4,0 c 0,0.03 0,0.06 0,0.09 0,-0.03 0,-0.06 0,-0.09 m 1452.4,0.1 c -0.08,7.03 -8.43,13.84 -24.05,20.32 15.62,-6.47 23.97,-13.24 24.05,-20.32 m -1452.4,0.01 c 0,0.03 0,0.06 0,0.09 0,-0.03 0,-0.06 0,-0.09 m 0,0.11 c 0,0.03 0,0.06 0.01,0.09 -0.01,-0.03 -0.01,-0.06 -0.01,-0.09 m 0.01,0.11 c 0,0.02 0,0.05 0,0.07 0,-0.02 0,-0.05 0,-0.07 m 0,0.1 c 0,0.02 0,0.05 0,0.07 0,-0.02 0,-0.05 0,-0.07 m 0.01,0.12 c 0,0.01 0,0.03 0,0.05 0,-0.02 0,-0.04 0,-0.05 m 0.01,0.12 c 0,0.01 0,0.01 0,0.02 0,-0.01 0,-0.02 0,-0.02 m 4.57,8.36 c 7.54,7.35 24.16,14.41 48.6,20.97 0.01,0 0.02,-0.01 0.03,-0.01 -24.45,-6.59 -41.09,-13.62 -48.63,-20.96 m 1402.31,18.79 c -2.48,0.73 -5.06,1.45 -7.73,2.17 0.01,0 0.01,0.01 0.02,0.01 2.66,-0.72 5.23,-1.45 7.71,-2.18" /><path
         id="path352"
         style="fill:#758288;fill-opacity:1;fill-rule:nonzero;stroke:none"
         d="m 3531.47,2590.42 v 0 c -13.5,0.4 -26.9,0.8 -40.1,1.3 13.39,6.49 25.68,13.89 37.37,21.58 l 2.61,-2.32 3.62,-3.26 c -1.2,-5.6 -2.4,-11.41 -3.5,-17.3 m 464.3,4.5 c 15.43,22.8 25.92,43.33 32.54,61.67 156.98,8.6 281.37,23.25 347.94,41.22 2.67,-0.72 5.25,-1.44 7.73,-2.17 8.2,-2.42 15.37,-4.89 21.44,-7.4 15.62,-6.48 23.97,-13.29 24.05,-20.32 0,-0.01 0,-0.01 0,-0.02 0,-0.03 0,-0.05 0,-0.08 v 0 c 0,-32.6 -178.3,-60.6 -433.7,-72.9 m -772.9,13.2 v 0 c -33.36,3.23 -63.99,6.79 -91.48,10.63 -9.51,1.33 -18.65,2.7 -27.4,4.09 -80.06,12.79 -126.92,28.27 -126.92,44.98 v 0 c 0,0.03 0,0.06 0,0.09 0,0.01 0,0.01 0,0.02 0,0.03 0,0.06 0,0.09 0,0.01 0,0.01 0,0.02 0,0.03 0,0.06 0.01,0.09 0,0.01 0,0.01 0,0.02 0,0.02 0,0.05 0,0.07 0,0.01 0,0.02 0,0.03 0,0.02 0,0.05 0,0.07 0.01,0.02 0.01,0.03 0.01,0.05 0,0.01 0,0.03 0,0.05 0,0.02 0,0.04 0.01,0.07 0,0 0,0.01 0,0.02 0.22,2.81 1.76,5.59 4.57,8.34 7.54,7.34 24.18,14.37 48.63,20.96 42.6,-11.5 109.09,-21.6 192.57,-29.69 45.84,-4.42 96.79,-8.23 151.8,-11.29 -36.75,-12.1 -74.66,-23.65 -112.3,-35.92 -13.2,-4.2 -26.3,-8.49 -39.5,-12.79" /><path
         id="path354"
         style="fill:#f8a461;fill-opacity:1;fill-rule:nonzero;stroke:none"
         d="m 3654.97,2747.22 c -0.7,-11.6 -5,-23.01 -12.8,-32.5 -8.3,-9.91 -15.4,-17.6 -23.5,-25.91 -4.8,-4.89 -9.6,-9.8 -14.5,-14.4 -3.2,-3.3 -6.5,-6.39 -9.8,-9.39 -16.7,-15.4 -34.4,-29.9 -53.6,-43.6 -1.1,-0.8 -2.2,-1.5 -3.3,-2.3 -2.9,-2.01 -5.8,-3.9 -8.7,-5.8 -11.7,-7.7 -24,-15.11 -37.4,-21.6 -4.8,-2.4 -9.7,-4.7 -14.8,-6.9 -11.7,-5.2 -26.6,-9.7 -36.9,-12.4 -11.2,-3.01 -21.9,-5.6 -32.5,-7.81 -14.9,-3.3 -29.6,-6.29 -44.3,-8.99 -27.3,-5.3 -54.5,-9.8 -81.9,-14 -23.3,-3.5 -46.6,-6.8 -70,-9.6 -18.8,-2.3 -37.6,-4.3 -56.6,-5.91 -2.1,-0.2 -4.3,-0.09 -6.3,0.2 -5,0.71 -9.7,2.7 -13.5,5.71 -5.9,4.69 -10,11.7 -10.7,19.8 -0.1,1.3 -0.1,2.59 0,3.8 0.5,11.3 7.9,21.3 18.5,25 l 0.1,0.09 2.4,0.8 c 25.9,9.31 51.9,18.1 78,26.61 13.2,4.3 26.3,8.59 39.5,12.79 39.9,13.01 80.1,25.2 118.9,38.1 9.7,3.21 19.3,6.51 28.2,9.71 9.8,3.4 14.8,6 22,10.09 4.5,2.61 9,5.51 13.6,8.61 9.6,6.39 19.4,13.8 29.1,21.9 13.2,10.9 26.4,22.9 39.3,35.4 20.7,0.6 41.7,1.1 63.1,1.49 25.7,0.5 51.9,0.81 78.4,1.01" /><path
         id="path356"
         style="fill:#4870c0;fill-opacity:1;fill-rule:nonzero;stroke:none"
         d="m 3656.17,2706.82 c -0.7,-2.1 -1.5,-4.1 -2.3,-6.11 -0.8,-1.99 -1.7,-3.99 -2.7,-5.99 -0.9,-2 -1.9,-3.9 -3,-5.71 -1.1,-1.9 -2.2,-3.79 -3.3,-5.69 l -0.3,-0.5 c -2.3,-3.5 -4.7,-6.91 -7.2,-10.2 -2.7,-3.5 -5.5,-6.91 -8.5,-10.1 -0.9,-1.01 -1.9,-2.1 -2.8,-3.11 -4.4,-4.69 -9,-9.09 -13.8,-13.19 -1.6,-1.5 -3.3,-2.9 -5,-4.2 l -1.9,-1.6 -0.4,-0.3 v -0.1 c -17.7,-14.31 -35.8,-25 -48,-31.5 -2.2,-1.1 -4.3,-2.21 -6.1,-3.1 l -0.3,-0.1 c -2.5,-1.31 -4.6,-2.3 -6,-3 -1.5,-0.61 -2.3,-1.01 -2.3,-1.01 l -7.3,6.41 -6.2,5.6 -14,12.39 -69.7,61.71 -5.3,4.7 c 0,0 21.4,23.9 50.4,51.8 7.7,0.29 15.5,0.49 23.3,0.8 20.7,0.6 41.7,1.1 63.1,1.49 25.7,0.5 51.9,0.81 78.4,1.01 2,0 3.9,0.1 5.8,0.1 1.3,-12.8 0.2,-26.41 -4.6,-40.5" /><path
         id="path358"
         style="fill:#c7d9f2;fill-opacity:1;fill-rule:nonzero;stroke:none"
         d="m 3534.97,2607.72 v 0 l -3.62,3.26 3.62,-3.21 v -0.05" /><path
         id="path360"
         style="fill:#c7d9f2;fill-opacity:1;fill-rule:nonzero;stroke:none"
         d="m 3514.76,2625.72 -69.69,61.7 -5.3,4.7 c 0,0 21.4,23.9 50.4,51.8 7.7,0.29 15.5,0.49 23.3,0.8 20.7,0.6 41.7,1.1 63.1,1.49 25.7,0.5 51.9,0.81 78.4,1.01 2,0 3.9,0.1 5.8,0.1 v 0 0 c -1.9,0 -3.8,-0.1 -5.8,-0.1 -26.5,-0.2 -52.7,-0.51 -78.4,-1.01 -4.7,-11.49 -9.5,-24.19 -14.3,-38.19 v -0.1 c -0.01,-0.04 -0.02,-0.07 -0.03,-0.1 -16.84,-19.14 -36.97,-47.44 -47.48,-82.1" /><path
         id="path362"
         style="fill:#667479;fill-opacity:1;fill-rule:nonzero;stroke:none"
         d="m 3531.35,2610.98 -2.61,2.32 c 0.01,0 0.02,0.01 0.03,0.02 v 0 l 2.58,-2.34" /><path
         id="path364"
         style="fill:#f7974f;fill-opacity:1;fill-rule:nonzero;stroke:none"
         d="m 3528.74,2613.3 -13.98,12.41 v 0.01 l 0.01,-0.01 14,-12.39 c -0.01,-0.01 -0.02,-0.02 -0.03,-0.02" /><path
         id="path366"
         style="fill:#b1c2e8;fill-opacity:1;fill-rule:nonzero;stroke:none"
         d="m 3534.97,2607.77 -3.62,3.21 -2.58,2.34 -14,12.39 -0.01,0.01 c 10.51,34.66 30.64,62.96 47.48,82.1 -8.59,-25.28 -17.08,-54.75 -24.77,-88.7 -0.9,-3.7 -1.7,-7.41 -2.5,-11.3 v -0.05" /><path
         id="path368"
         style="fill:#f9a95e;fill-opacity:1;fill-rule:nonzero;stroke:none"
         d="m 3152.83,2580.3 -92.94,14.18 0.74,-82.18 c 0,0 63.57,-19.05 97.24,24.12 l -5.04,43.88" /><path
         id="path370"
         style="fill:#f9a95e;fill-opacity:1;fill-rule:nonzero;stroke:none"
         d="m 2996.74,2572.34 15.22,-61.13 48.67,1.09 -0.74,82.18 -63.15,-22.14" /><path
         id="path372"
         style="fill:#4870c0;fill-opacity:1;fill-rule:nonzero;stroke:none"
         d="m 3992.27,2740.91 c -0.8,-2.09 -1.7,-4.2 -2.5,-6.39 -2.4,-6.11 -4.7,-12.3 -6.9,-18.5 -1.4,-3.8 -2.7,-7.61 -4,-11.5 -1.4,-3.9 -2.7,-7.8 -3.9,-11.7 -3.7,-11.6 -7.3,-23.3 -10.8,-35.2 l -0.5,-1.91 c -3.73,-13.2 -7.12,-26.69 -10.49,-40.17 l -0.41,-1.62 c -1.7,-7.01 -3.5,-14 -5.1,-21.1 -0.8,-3.21 -1.5,-6.31 -2.2,-9.5 -2.7,-12.3 -5.3,-24.71 -7.7,-37.01 l -0.1,-0.09 c -0.9,-4.6 -1.8,-9.2 -2.6,-13.71 -1,-4.79 -1.9,-9.59 -2.7,-14.3 -0.2,-0.99 -0.4,-1.99 -0.5,-2.99 -0.5,-2.6 -1,-5.2 -1.4,-7.8 -1.3,-7.3 -2.5,-14.5 -3.7,-21.6 -0.2,-1.1 -0.3,-2.1 -0.5,-3.2 -0.4,-2.5 -0.8,-5 -1.2,-7.5 -2.4,-14.6 -4.5,-28.9 -6.4,-42.8 l -0.4,-2.4 c -2.1,-15.3 -3.9,-30.11 -5.5,-44.3 -0.7,-5.9 -1.4,-11.7 -2,-17.41 -0.9,-7.99 -1.7,-15.69 -2.4,-23.19 -0.6,-5.5 -1.1,-10.9 -1.6,-16.1 -0.5,-4.91 -0.9,-9.71 -1.3,-14.3 -0.4,-4.7 -0.8,-9.2 -1.2,-13.51 -1,-12.19 -1.8,-23.19 -2.5,-32.7 -0.3,-4.2 -0.5,-7.99 -0.8,-11.59 -0.8,-13.3 -1.2,-22.6 -1.4,-26.8 -0.1,-1.7 -0.1,-2.6 -0.1,-2.6 l -177.3,16.3 -2.6,0.2 -29.8,2.79 -45.1,4.2 h -0.1 l -54.2,5 -13.1,1.21 -66.3,6.09 c -0.3,6.31 -0.6,12.41 -0.7,18.61 v 0.2 c -0.1,1.7 -0.2,3.4 -0.2,5.09 -1.9,54.6 -0.9,104.71 2,150.41 1.6,23.7 3.7,46.29 6.2,67.7 3.6,30.8 8.1,59.1 13.2,85.2 1.1,5.89 2.3,11.7 3.5,17.3 v 0.1 c 0.8,3.89 1.6,7.6 2.5,11.3 7.7,34 16.2,63.5 24.8,88.8 v 0.1 c 4.8,14 9.6,26.7 14.3,38.19 25.7,0.5 51.9,0.81 78.4,1.01 2,0 3.9,0.1 5.8,0.1 h 0.1 c 14,0.1 28.2,0.1 42.4,0.1 74.8,0 147,-1.21 214.9,-3.61 10.9,-0.29 21.6,-0.69 32.2,-1.1 14.2,-0.59 28.1,-1.19 41.9,-1.8" /><path
         id="path374"
         style="fill:#ffffff;fill-opacity:1;fill-rule:nonzero;stroke:none"
         d="m 3901.77,2268.41 v 0 0 c 0.7,9.51 1.5,20.51 2.5,32.7 0.4,4.31 0.8,8.81 1.2,13.51 0.4,4.59 0.8,9.39 1.3,14.3 0.5,5.2 1,10.6 1.6,16.1 0.7,7.5 1.5,15.2 2.4,23.19 0.6,5.71 1.3,11.51 2,17.41 1.6,14.19 3.4,29 5.5,44.3 l 0.4,2.4 c 1.9,13.9 4,28.2 6.4,42.8 0.4,2.5 0.8,5 1.2,7.5 0.1,0.54 0.17,1.07 0.25,1.59 v 0 c -0.08,-0.52 -0.15,-1.05 -0.25,-1.59 -0.4,-2.5 -0.8,-5 -1.2,-7.5 -2.3,-14.6 -4.5,-28.9 -6.4,-42.8 l -0.4,-2.4 c -2.1,-15.3 -3.9,-30.11 -5.5,-44.3 -0.7,-5.9 -1.4,-11.7 -2,-17.41 -0.9,-7.99 -1.7,-15.69 -2.4,-23.19 -0.6,-5.5 -1.1,-10.9 -1.6,-16.1 -0.5,-4.91 -0.9,-9.71 -1.3,-14.3 -0.4,-4.7 -0.8,-9.2 -1.2,-13.51 -1,-12.19 -1.8,-23.19 -2.5,-32.7 v 0 m 25.34,219.39 v 0 c 1.08,6.46 2.18,13 3.36,19.62 0.4,2.6 0.9,5.2 1.4,7.8 0.03,0.27 0.06,0.54 0.1,0.81 0.12,0.65 0.24,1.3 0.36,1.96 0.01,0.07 0.03,0.15 0.04,0.22 v 0 l 0.1,0.11 c -0.3,-1 -0.4,-2.1 -0.6,-3.1 -0.5,-2.6 -1,-5.2 -1.4,-7.8 -1.18,-6.62 -2.28,-13.16 -3.36,-19.62" /><path
         id="path376"
         style="fill:#c7d9f2;fill-opacity:1;fill-rule:nonzero;stroke:none"
         d="m 3901.77,2268.41 -389.52,29 -1.36,-10.4 -0.82,0.06 c 0,0.02 0,0.03 0,0.04 -0.66,18.99 -0.97,37.43 -0.97,55.32 -0.01,33.59 1.08,65.28 2.97,95.09 v 0 c 32.7,-7.8 65.7,-14.4 99.3,-19.7 26.3,-3.9 52.9,-7.6 80.5,-9.1 9.67,-0.56 19.44,-0.92 29.58,-0.92 4.43,0 8.93,0.07 13.52,0.22 7.6,0.19 15.5,0.9 23.9,2 4.5,0.8 8.7,1.4 13.6,2.6 5.1,1.19 10.1,2.6 15.1,4.6 20,7.6 33.6,16.8 46.5,25.9 10.08,7.38 18.86,14.76 27.45,22.64 2.16,-0.09 4.34,-0.14 6.55,-0.14 18.07,0 37.64,3.26 56.99,9.49 0.4,2.5 0.8,5 1.2,7.5 0.09,0.53 0.17,1.07 0.26,1.6 -0.08,-0.52 -0.15,-1.05 -0.25,-1.59 -0.4,-2.5 -0.8,-5 -1.2,-7.5 -2.4,-14.6 -4.5,-28.9 -6.4,-42.8 l -0.4,-2.4 c -2.1,-15.3 -3.9,-30.11 -5.5,-44.3 -0.7,-5.9 -1.4,-11.7 -2,-17.41 -0.9,-7.99 -1.7,-15.69 -2.4,-23.19 -0.6,-5.5 -1.1,-10.9 -1.6,-16.1 -0.5,-4.91 -0.9,-9.71 -1.3,-14.3 -0.4,-4.7 -0.8,-9.2 -1.2,-13.51 -1,-12.19 -1.8,-23.19 -2.5,-32.7 v 0 m 25.34,219.39 c 1.53,9.33 3.15,18.75 4.86,28.23 -0.04,-0.27 -0.07,-0.54 -0.1,-0.81 -0.5,-2.6 -1,-5.2 -1.4,-7.8 -1.18,-6.62 -2.28,-13.16 -3.36,-19.62 m -284.44,14.58 c -7.97,0 -15.99,0.08 -24,0.24 -33.1,0.5 -66.7,1.4 -100.4,2.6 v 0 0 c 3.6,30.8 8.1,59.1 13.2,85.2 1.1,5.89 2.3,11.7 3.5,17.3 v 0.1 c 0.8,3.89 1.6,7.6 2.5,11.3 7.7,34 16.2,63.5 24.8,88.8 v 0.1 c 4.8,14 9.6,26.7 14.3,38.19 25.7,0.5 51.9,0.81 78.4,1.01 2,0 3.9,0.1 5.8,0.1 h 0.1 c 14,0.1 28.2,0.1 42.4,0.1 74.8,0 147,-1.21 214.9,-3.61 10.9,-0.29 21.6,-0.69 32.2,-1.1 14.2,-0.59 28.1,-1.19 41.9,-1.8 v 0 c -13.8,0.61 -27.7,1.21 -41.9,1.8 v 0 c -10.6,0.41 -21.3,0.81 -32.2,1.1 -11.7,-8.99 -22.9,-20.99 -32.4,-36.99 -7.49,-12.79 -18.88,-30.87 -31.06,-49.85 -20.32,-14.94 -60.88,-52.06 -66.75,-113.46 -6.19,-6.3 -12.49,-12.1 -18.49,-17.29 -7.5,-6.61 -15.4,-12.1 -19.4,-14.11 -2.6,-2.09 -12.5,-4.29 -23,-5.69 -10.6,-1.5 -22.3,-2.5 -34.3,-3.01 -16.27,-0.67 -33.1,-1.03 -50.1,-1.03 m 289.66,15.61 c 0.01,0.07 0.02,0.15 0.04,0.22 v 0 c -0.01,-0.07 -0.03,-0.15 -0.04,-0.22" /><path
         id="path378"
         style="fill:#100f0d;fill-opacity:1;fill-rule:nonzero;stroke:none"
         d="m 3035.03,1413.58 c 0,0 125.18,51.65 129.3,103.51 0.4,5.09 4.23,8.85 9.64,8.52 l 95.47,-5.84 c 4.46,-0.27 8.65,-3.23 10.44,-7.36 l 38.22,-88.28 -26.45,-3.61 -11.2,12.06 -9.68,-14.91 c -143.54,-19.64 -205.78,-26.59 -235.42,-21.54 -5.85,12.13 -0.32,17.45 -0.32,17.45" /><path
         id="path380"
         style="fill:#1d2a30;fill-opacity:1;fill-rule:nonzero;stroke:none"
         d="m 3620.87,1932.96 c -5.5,1.21 -8.52,2.03 -8.52,2.03 l -450.09,56.26 133.81,-476.53 -136.28,-12.98 c 0,0 -310.82,599.51 -183.77,686 127.04,86.5 520.75,-9.02 520.75,-9.02 l 15.48,118.69 391.58,-29.16 c 63.07,-391.32 -228.9,-346.68 -282.96,-335.29" /><path
         id="path382"
         style="fill:#100f0d;fill-opacity:1;fill-rule:nonzero;stroke:none"
         d="m 3491.24,556.281 c 0,0 134.8,12.918 153.85,61.321 1.87,4.738 6.63,7.23 11.71,5.328 l 89.62,-33.418 c 4.18,-1.563 7.33,-5.614 7.83,-10.09 l 10.82,-95.57 -26.35,4.25 -7.19,14.796 -13.61,-11.437 c -143.03,23.059 -204.59,34.559 -231.47,48.039 -2.06,13.301 4.79,16.781 4.79,16.781" /><path
         id="path384"
         style="fill:#1d2a30;fill-opacity:1;fill-rule:nonzero;stroke:none"
         d="m 3907.94,2126.42 0.01,-0.1 c -0.55,-2.38 -16.83,-77.44 -38.19,-184.87 -1.17,-6.15 -2.41,-12.48 -3.65,-18.83 -10.01,-51.13 -20.97,-108.56 -31.78,-168.52 -13.28,-72.92 -26.3,-149.51 -37.31,-222.71 -15.88,-105.84 -27.47,-204.56 -29.11,-275.12 -5.25,-231.61 -14.86,-688.84 -14.86,-688.84 l -124.77,19.621 c 0,0 -68.93,487.559 -68.1,723.709 0.58,150.08 37.84,459.04 63.18,651.25 12.87,98.65 22.63,166.57 22.63,166.57 l 141.3,-1.22 120.65,-0.94" /><path
         id="path386"
         style="fill:#1d2a30;fill-opacity:1;fill-rule:nonzero;stroke:none"
         d="m 3898.06,2230.09 8.3,-0.65 -0.31,27.03 -7.38,0.57 -0.61,-26.95" /><path
         id="path388"
         style="fill:#1d2a30;fill-opacity:1;fill-rule:nonzero;stroke:none"
         d="m 3590.31,2254 167.02,-12.98 0.75,26.88 -166.37,12.86 -1.4,-26.76" /><path
         id="path390"
         style="fill:#1d2a30;fill-opacity:1;fill-rule:nonzero;stroke:none"
         d="m 3578.83,2281.76 -70.62,5.46 -2.53,-26.64 71.49,-5.56 1.66,26.74" /><path
         id="path392"
         style="fill:#1d2a30;fill-opacity:1;fill-rule:nonzero;stroke:none"
         d="m 3885.78,2258.03 -114.86,8.88 -0.48,-26.9 114.47,-8.9 0.87,26.92" /><path
         id="path394"
         style="fill:#45555c;fill-opacity:1;fill-rule:nonzero;stroke:none"
         d="m 3906.36,2229.44 -8.3,0.65 0.61,26.95 7.38,-0.57 0.31,-27.03" /><path
         id="path396"
         style="fill:#45555c;fill-opacity:1;fill-rule:nonzero;stroke:none"
         d="m 3757.33,2241.02 -167.02,12.98 1.4,26.76 166.37,-12.86 -0.75,-26.88" /><path
         id="path398"
         style="fill:#45555c;fill-opacity:1;fill-rule:nonzero;stroke:none"
         d="m 3577.17,2255.02 -71.49,5.56 2.53,26.64 70.62,-5.46 -1.66,-26.74" /><path
         id="path400"
         style="fill:#45555c;fill-opacity:1;fill-rule:nonzero;stroke:none"
         d="m 3884.91,2231.11 -114.47,8.9 0.48,26.9 114.86,-8.88 -0.87,-26.92" /><path
         id="path402"
         style="fill:#ffffff;fill-opacity:1;fill-rule:nonzero;stroke:none"
         d="m 3642.54,2271.75 -3.62,0.15 -0.65,-16.32 -0.01,-0.34 c 0,-4.38 3.33,-8.06 7.72,-8.47 l 41.65,-3.89 0.8,-0.04 c 4.58,0.01 8.38,3.65 8.5,8.31 l 0.39,17.01 v -0.01 l 0.01,0.21 c 0,4.44 -3.42,8.14 -7.86,8.49 l -41.39,3.2 -0.67,0.02 c -4.53,0 -8.31,-3.57 -8.49,-8.18 v 0.01 l 3.62,-0.15 3.63,-0.14 1.24,1.2 h 0.11 l 41.39,-3.2 1.16,-1.25 v -0.03 l -0.4,-17 v 0 l -1.24,-1.23 -0.13,0.01 -41.64,3.89 -1.14,1.24 v 0.06 l 0.65,16.4 v -0.09 l -3.63,0.14" /><path
         id="path404"
         style="fill:#ffffff;fill-opacity:1;fill-rule:nonzero;stroke:none"
         d="m 3674.75,2257.83 12.7,-1.2 c 2,-0.19 3.77,1.27 3.96,3.27 0.19,1.99 -1.27,3.76 -3.27,3.95 l -12.7,1.21 c -2,0.19 -3.77,-1.28 -3.96,-3.27 -0.19,-2 1.27,-3.77 3.27,-3.96" /><path
         id="path406"
         style="fill:#e8e8e7;fill-opacity:1;fill-rule:nonzero;stroke:none"
         d="m 3926.52,2484.21 c 0.08,0.53 0.15,1.05 0.25,1.61 0.11,0.66 0.22,1.32 0.34,1.98 -0.2,-1.2 -0.4,-2.39 -0.59,-3.59" /><path
         id="path408"
         style="fill:#e8e8e7;fill-opacity:1;fill-rule:nonzero;stroke:none"
         d="m 3931.97,2516.03 c 0.1,0.65 0.23,1.31 0.36,1.96 -0.12,-0.66 -0.24,-1.31 -0.36,-1.96" /><path
         id="path410"
         style="fill:#b1c2e8;fill-opacity:1;fill-rule:nonzero;stroke:none"
         d="m 3868.07,2465.62 c -2.21,0 -4.39,0.05 -6.55,0.14 0.02,0.02 0.03,0.04 0.05,0.06 h 0.2 c 2.3,2 4.5,3.99 6.7,6 11.7,10.8 22.6,21.79 33,32.99 v 0 l 11.2,-6.29 c 6.9,6.69 13.5,13.29 19.7,19.69 -0.02,-0.07 -0.03,-0.15 -0.04,-0.22 -0.13,-0.65 -0.26,-1.31 -0.36,-1.96 -1.71,-9.48 -3.33,-18.9 -4.86,-28.23 -0.12,-0.66 -0.23,-1.32 -0.34,-1.98 -0.1,-0.56 -0.17,-1.08 -0.25,-1.61 -0.09,-0.53 -0.17,-1.07 -0.26,-1.6 -0.4,-2.5 -0.8,-5 -1.2,-7.5 -19.35,-6.23 -38.92,-9.49 -56.99,-9.49 m -80.11,77.89 c 5.87,61.4 46.43,98.52 66.75,113.46 -0.01,-0.02 -0.02,-0.04 -0.04,-0.06 -15.7,-24.19 -32.6,-49.89 -44.5,-67.9 -9.5,-14.4 -15.9,-23.89 -15.9,-23.89 v 0 0 l 9.1,-5.1 c -3.3,-3.8 -6.7,-7.6 -10.2,-11.21 -1.7,-1.79 -3.4,-3.59 -5.2,-5.29 0,-0.01 -0.01,-0.01 -0.01,-0.01" /><path
         id="path412"
         style="fill:#1d2a30;fill-opacity:1;fill-rule:nonzero;stroke:none"
         d="m 3291.6,115.559 h 92.49 L 3083.33,2492.56 h -92.49 L 3291.6,115.559" /><path
         id="path414"
         style="fill:#758288;fill-opacity:1;fill-rule:nonzero;stroke:none"
         d="m 3384.09,115.559 h -92.49 l -128.48,1015.411 28.67,226.61 c 3.61,-4.37 8.52,-6.91 13.71,-6.91 h 22.31 l 47.4,-374.561 h -46.72 c -10.57,0 -19.12,-8.558 -19.12,-19.129 v -4.218 0 c 0,-10.563 8.55,-19.133 19.12,-19.133 h 3.92 l 9.79,-20.738 c 3.5,-7.43 9.95,-12.012 16.93,-12.012 h 25.59 l 47.4,-374.559 h -50 c -10.57,0 -19.13,-8.57 -19.13,-19.121 v -4.23 0 c 0,-10.559 8.56,-19.117 19.13,-19.117 h 3.92 l 9.79,-20.75 c 3.51,-7.43 9.96,-12.012 16.93,-12.012 h 28.88 l 42.45,-335.531 M 3218.29,1425.9 h -17.85 l 8.92,70.57 8.93,-70.57 m -101.42,70.58 -38.46,303.99 h 76.92 l -38.46,-303.99 m 44.51,379.21 h -40.15 v 0 h -52.34 l -33.47,264.53 h 92.49 l 33.47,-264.53 m -42.99,339.76 h -50.79 v 0 h -41.7 l -33.53,264.99 h 92.49 l 33.53,-264.99" /><path
         id="path416"
         style="fill:#1d2a30;fill-opacity:1;fill-rule:nonzero;stroke:none"
         d="m 3098.24,2140.22 h 294.03 c 6.97,0 13.42,4.58 16.93,12.01 l 18.68,39.58 h -365.25 l 18.68,-39.58 c 3.51,-7.43 9.95,-12.01 16.93,-12.01" /><path
         id="path418"
         style="fill:#758288;fill-opacity:1;fill-rule:nonzero;stroke:none"
         d="m 3392.27,2140.22 h -101.45 l 4.14,32.75 h 93.38 l 4.14,-32.75 c -0.07,0 -0.14,0 -0.21,0" /><path
         id="path420"
         style="fill:#1d2a30;fill-opacity:1;fill-rule:nonzero;stroke:none"
         d="m 3067.6,2172.97 h 355.31 c 10.56,0 19.13,8.57 19.13,19.13 v 4.22 c 0,10.57 -8.57,19.13 -19.13,19.13 H 3067.6 c -10.56,0 -19.12,-8.56 -19.12,-19.13 v -4.22 c 0,-10.56 8.56,-19.13 19.12,-19.13" /><path
         id="path422"
         style="fill:#304047;fill-opacity:1;fill-rule:nonzero;stroke:none"
         d="m 3388.34,2172.97 h -93.38 l 5.38,42.48 h 82.62 l 5.38,-42.48" /><path
         id="path424"
         style="fill:#1d2a30;fill-opacity:1;fill-rule:nonzero;stroke:none"
         d="m 3151.87,1800.47 h 294.03 c 6.98,0 13.43,4.57 16.93,12 l 18.68,39.59 h -365.25 l 18.68,-39.59 c 3.51,-7.43 9.96,-12 16.93,-12" /><path
         id="path426"
         style="fill:#758288;fill-opacity:1;fill-rule:nonzero;stroke:none"
         d="m 3435.47,1800.47 h -187.64 l 4.14,32.74 h 179.36 l 4.14,-32.74" /><path
         id="path428"
         style="fill:#1d2a30;fill-opacity:1;fill-rule:nonzero;stroke:none"
         d="m 3121.23,1833.21 h 355.31 c 10.56,0 19.12,8.57 19.12,19.13 v 4.22 c 0,10.57 -8.56,19.13 -19.12,19.13 h -355.31 c -10.56,0 -19.13,-8.56 -19.13,-19.13 v -4.22 c 0,-10.56 8.57,-19.13 19.13,-19.13" /><path
         id="path430"
         style="fill:#304047;fill-opacity:1;fill-rule:nonzero;stroke:none"
         d="m 3431.33,1833.21 h -179.36 l 5.38,42.48 h 168.6 l 5.38,-42.48" /><path
         id="path432"
         style="fill:#1d2a30;fill-opacity:1;fill-rule:nonzero;stroke:none"
         d="m 3205.5,1350.67 h 294.03 c 6.97,0 13.42,4.57 16.93,12.02 l 18.68,39.58 h -365.25 l 18.68,-39.58 c 3.51,-7.45 9.96,-12.02 16.93,-12.02" /><path
         id="path434"
         style="fill:#758288;fill-opacity:1;fill-rule:nonzero;stroke:none"
         d="M 3492.38,1350.67 H 3205.5 c -5.19,0 -10.1,2.54 -13.71,6.91 l 3.27,25.85 h 293.18 l 4.14,-32.76" /><path
         id="path436"
         style="fill:#1d2a30;fill-opacity:1;fill-rule:nonzero;stroke:none"
         d="m 3174.86,1383.43 h 355.31 c 10.56,0 19.13,8.56 19.13,19.12 v 4.23 c 0,10.56 -8.57,19.12 -19.13,19.12 h -355.31 c -10.56,0 -19.13,-8.56 -19.13,-19.12 v -4.23 c 0,-10.56 8.57,-19.12 19.13,-19.12" /><path
         id="path438"
         style="fill:#304047;fill-opacity:1;fill-rule:nonzero;stroke:none"
         d="m 3488.24,1383.43 h -293.18 l 5.38,42.47 h 282.43 l 5.37,-42.47" /><path
         id="path440"
         style="fill:#1d2a30;fill-opacity:1;fill-rule:nonzero;stroke:none"
         d="m 3259.13,900.879 h 294.03 c 6.97,0 13.42,4.582 16.93,12.012 l 18.68,39.578 h -365.25 l 18.68,-39.578 c 3.5,-7.43 9.95,-12.012 16.93,-12.012" /><path
         id="path442"
         style="fill:#758288;fill-opacity:1;fill-rule:nonzero;stroke:none"
         d="m 3549.3,900.879 h -290.17 c -6.98,0 -13.43,4.582 -16.93,12.012 l -9.79,20.738 h 312.74 l 4.15,-32.75" /><path
         id="path444"
         style="fill:#1d2a30;fill-opacity:1;fill-rule:nonzero;stroke:none"
         d="m 3228.49,933.629 h 355.31 c 10.56,0 19.12,8.57 19.12,19.133 v 4.218 c 0,10.571 -8.56,19.129 -19.12,19.129 h -355.31 c -10.57,0 -19.12,-8.558 -19.12,-19.129 v -4.218 c 0,-10.563 8.55,-19.133 19.12,-19.133" /><path
         id="path446"
         style="fill:#304047;fill-opacity:1;fill-rule:nonzero;stroke:none"
         d="m 3545.15,933.629 h -316.66 c -10.57,0 -19.12,8.57 -19.12,19.133 v 4.218 c 0,10.571 8.55,19.129 19.12,19.129 h 311.29 l 5.37,-42.48" /><path
         id="path448"
         style="fill:#1d2a30;fill-opacity:1;fill-rule:nonzero;stroke:none"
         d="m 3312.76,451.09 h 294.03 c 6.97,0 13.42,4.582 16.93,12.012 l 18.68,39.589 h -365.25 l 18.68,-39.589 c 3.51,-7.43 9.96,-12.012 16.93,-12.012" /><path
         id="path450"
         style="fill:#758288;fill-opacity:1;fill-rule:nonzero;stroke:none"
         d="m 3606.21,451.09 h -293.45 c -6.97,0 -13.42,4.582 -16.93,12.012 l -9.79,20.75 h 316.02 l 4.15,-32.762" /><path
         id="path452"
         style="fill:#1d2a30;fill-opacity:1;fill-rule:nonzero;stroke:none"
         d="m 3282.12,483.852 h 355.31 c 10.56,0 19.12,8.558 19.12,19.117 v 4.23 c 0,10.551 -8.56,19.121 -19.12,19.121 h -355.31 c -10.57,0 -19.13,-8.57 -19.13,-19.121 v -4.23 c 0,-10.559 8.56,-19.117 19.13,-19.117" /><path
         id="path454"
         style="fill:#304047;fill-opacity:1;fill-rule:nonzero;stroke:none"
         d="m 3602.06,483.852 h -319.94 c -10.57,0 -19.13,8.558 -19.13,19.117 v 4.23 c 0,10.551 8.56,19.121 19.13,19.121 h 314.57 l 5.37,-42.468" /><path
         id="path456"
         style="fill:#1d2a30;fill-opacity:1;fill-rule:nonzero;stroke:none"
         d="m 3648.66,115.559 h 92.5 L 3440.4,2492.56 h -92.5 L 3648.66,115.559" /><path
         id="path458"
         style="fill:#bdc1c2;fill-opacity:1;fill-rule:nonzero;stroke:none"
         d="m 3741.16,115.559 h -92.5 l -256.18,2024.661 -4.14,32.75 -38.9,307.47 h 87.13 c -0.48,-8.07 2.56,-15.82 8.07,-21.36 L 3741.16,115.559" /><path
         id="path460"
         style="fill:#1d2a30;fill-opacity:1;fill-rule:nonzero;stroke:none"
         d="m 2677.57,115.559 h -92.5 l 300.77,2377.001 h 92.49 L 2677.57,115.559" /><path
         id="path462"
         style="fill:#758288;fill-opacity:1;fill-rule:nonzero;stroke:none"
         d="m 2677.57,115.559 h -92.5 L 2884.3,2480.44 h 92.5 l -33.53,-264.99 h -39.94 c -10.57,0 -19.13,-8.56 -19.13,-19.13 v -4.22 0 c 0,-10.56 8.56,-19.13 19.13,-19.13 h 3.91 l 9.79,-20.74 c 3.48,-7.36 9.83,-11.92 16.72,-12.01 l -33.47,-264.53 h -50.58 c -10.57,0 -19.13,-8.56 -19.13,-19.13 v -4.22 0 c 0,-10.56 8.56,-19.13 19.13,-19.13 h 3.92 l 9.78,-20.74 c 3.51,-7.43 9.96,-12 16.94,-12 h 10.42 l -24.92,-196.95 -7.85,-62.04 -14.62,-115.58 h -47.31 c -10.56,0 -19.12,-8.56 -19.12,-19.12 v -4.23 0 c 0,-10.56 8.56,-19.12 19.12,-19.12 h 3.93 l 9.79,-20.74 c 3.5,-7.45 9.95,-12.02 16.93,-12.02 h 7.14 l -21.48,-169.77 -12,-94.85 -13.91,-109.941 h -44.02 c -10.56,0 -19.13,-8.558 -19.13,-19.129 v -4.218 0 c 0,-10.563 8.57,-19.133 19.13,-19.133 h 3.91 l 9.79,-20.738 c 3.51,-7.43 9.96,-12.012 16.94,-12.012 h 3.86 l -0.1,-0.758 -0.31,-2.5 -14.29,-112.91 -12,-94.871 -20.69,-163.52 h -40.74 c -10.56,0 -19.13,-8.57 -19.13,-19.121 v -4.23 0 c 0,-10.559 8.57,-19.117 19.13,-19.117 h 3.91 l 9.79,-20.75 c 3.52,-7.43 9.96,-12.012 16.94,-12.012 h 0.58 l -0.25,-1.961 -42.21,-333.57" /><path
         id="path464"
         style="fill:#1d2a30;fill-opacity:1;fill-rule:nonzero;stroke:none"
         d="m 3227.99,2140.22 h -294.03 c -6.97,0 -13.42,4.58 -16.93,12.01 l -18.68,39.58 h 365.25 l -18.67,-39.58 c -3.51,-7.43 -9.96,-12.01 -16.94,-12.01" /><path
         id="path466"
         style="fill:#8e989b;fill-opacity:1;fill-rule:nonzero;stroke:none"
         d="m 3198.32,2140.22 h -264.36 c -6.97,0 -13.42,4.58 -16.93,12.01 l -9.79,20.74 h 295.23 l -4.15,-32.75" /><path
         id="path468"
         style="fill:#1d2a30;fill-opacity:1;fill-rule:nonzero;stroke:none"
         d="m 3258.63,2172.97 h -355.3 c -10.57,0 -19.13,8.57 -19.13,19.13 v 4.22 c 0,10.57 8.56,19.13 19.13,19.13 h 355.3 c 10.57,0 19.13,-8.56 19.13,-19.13 v -4.22 c 0,-10.56 -8.56,-19.13 -19.13,-19.13" /><path
         id="path470"
         style="fill:#45555c;fill-opacity:1;fill-rule:nonzero;stroke:none"
         d="m 3202.47,2172.97 h -299.14 c -10.57,0 -19.13,8.57 -19.13,19.13 v 4.22 c 0,10.57 8.56,19.13 19.13,19.13 h 304.51 l -5.37,-42.48" /><path
         id="path472"
         style="fill:#1d2a30;fill-opacity:1;fill-rule:nonzero;stroke:none"
         d="m 3174.37,1800.47 h -294.03 c -6.98,0 -13.43,4.57 -16.94,12 l -18.67,39.59 h 365.24 l -18.67,-39.59 c -3.51,-7.43 -9.96,-12 -16.93,-12" /><path
         id="path474"
         style="fill:#8e989b;fill-opacity:1;fill-rule:nonzero;stroke:none"
         d="m 3155.33,1800.47 h -274.99 c -6.98,0 -13.43,4.57 -16.94,12 l -9.78,20.74 h 305.86 l -4.15,-32.74" /><path
         id="path476"
         style="fill:#1d2a30;fill-opacity:1;fill-rule:nonzero;stroke:none"
         d="m 3205,1833.21 h -355.3 c -10.57,0 -19.13,8.57 -19.13,19.13 v 4.22 c 0,10.57 8.56,19.13 19.13,19.13 H 3205 c 10.57,0 19.13,-8.56 19.13,-19.13 v -4.22 c 0,-10.56 -8.56,-19.13 -19.13,-19.13" /><path
         id="path478"
         style="fill:#45555c;fill-opacity:1;fill-rule:nonzero;stroke:none"
         d="M 3159.48,1833.21 H 2849.7 c -10.57,0 -19.13,8.57 -19.13,19.13 v 4.22 c 0,10.57 8.56,19.13 19.13,19.13 h 315.15 l -5.37,-42.48" /><path
         id="path480"
         style="fill:#1d2a30;fill-opacity:1;fill-rule:nonzero;stroke:none"
         d="m 3120.73,1350.67 h -294.02 c -6.98,0 -13.43,4.57 -16.93,12.02 l -18.69,39.58 h 365.26 l -18.68,-39.58 c -3.51,-7.45 -9.96,-12.02 -16.94,-12.02" /><path
         id="path482"
         style="fill:#8e989b;fill-opacity:1;fill-rule:nonzero;stroke:none"
         d="m 3098.42,1350.67 h -271.71 c -6.98,0 -13.43,4.57 -16.93,12.02 l -9.79,20.74 h 302.58 l -4.15,-32.76" /><path
         id="path484"
         style="fill:#1d2a30;fill-opacity:1;fill-rule:nonzero;stroke:none"
         d="m 3151.38,1383.43 h -355.32 c -10.56,0 -19.12,8.56 -19.12,19.12 v 4.23 c 0,10.56 8.56,19.12 19.12,19.12 h 355.32 c 10.56,0 19.12,-8.56 19.12,-19.12 v -4.23 c 0,-10.56 -8.56,-19.12 -19.12,-19.12" /><path
         id="path486"
         style="fill:#45555c;fill-opacity:1;fill-rule:nonzero;stroke:none"
         d="m 3102.57,1383.43 h -306.51 c -10.56,0 -19.12,8.56 -19.12,19.12 v 4.23 c 0,10.56 8.56,19.12 19.12,19.12 h 311.88 l -5.37,-42.47" /><path
         id="path488"
         style="fill:#1d2a30;fill-opacity:1;fill-rule:nonzero;stroke:none"
         d="m 3067.1,900.879 h -294.02 c -6.98,0 -13.43,4.582 -16.94,12.012 l -18.67,39.578 h 365.25 l -18.68,-39.578 c -3.51,-7.43 -9.96,-12.012 -16.94,-12.012" /><path
         id="path490"
         style="fill:#8e989b;fill-opacity:1;fill-rule:nonzero;stroke:none"
         d="m 3041.51,900.879 h -268.43 c -6.98,0 -13.43,4.582 -16.94,12.012 l -9.79,20.738 h 299.3 l -4.14,-32.75" /><path
         id="path492"
         style="fill:#1d2a30;fill-opacity:1;fill-rule:nonzero;stroke:none"
         d="m 3097.75,933.629 h -355.31 c -10.56,0 -19.13,8.57 -19.13,19.133 v 4.218 c 0,10.571 8.57,19.129 19.13,19.129 h 355.31 c 10.56,0 19.12,-8.558 19.12,-19.129 v -4.218 c 0,-10.563 -8.56,-19.133 -19.12,-19.133" /><path
         id="path494"
         style="fill:#45555c;fill-opacity:1;fill-rule:nonzero;stroke:none"
         d="m 3045.65,933.629 h -303.21 c -10.56,0 -19.13,8.57 -19.13,19.133 v 4.218 c 0,10.571 8.57,19.129 19.13,19.129 h 308.59 l -5.38,-42.48" /><path
         id="path496"
         style="fill:#1d2a30;fill-opacity:1;fill-rule:nonzero;stroke:none"
         d="m 3013.48,451.09 h -294.03 c -6.98,0 -13.42,4.582 -16.94,12.012 l -18.67,39.589 h 365.25 l -18.68,-39.589 c -3.51,-7.43 -9.96,-12.012 -16.93,-12.012" /><path
         id="path498"
         style="fill:#8e989b;fill-opacity:1;fill-rule:nonzero;stroke:none"
         d="m 2984.6,451.09 h -265.15 c -6.98,0 -13.42,4.582 -16.94,12.012 l -9.79,20.75 h 296.02 l -4.14,-32.762" /><path
         id="path500"
         style="fill:#1d2a30;fill-opacity:1;fill-rule:nonzero;stroke:none"
         d="m 3044.12,483.852 h -355.31 c -10.56,0 -19.13,8.558 -19.13,19.117 v 4.23 c 0,10.551 8.57,19.121 19.13,19.121 h 355.31 c 10.56,0 19.12,-8.57 19.12,-19.121 v -4.23 c 0,-10.559 -8.56,-19.117 -19.12,-19.117" /><path
         id="path502"
         style="fill:#45555c;fill-opacity:1;fill-rule:nonzero;stroke:none"
         d="m 2988.74,483.852 h -299.93 c -10.56,0 -19.13,8.558 -19.13,19.117 v 4.23 c 0,10.551 8.57,19.121 19.13,19.121 h 305.31 l -5.38,-42.468" /><path
         id="path504"
         style="fill:#1d2a30;fill-opacity:1;fill-rule:nonzero;stroke:none"
         d="m 3034.64,115.559 h -92.5 L 3242.9,2492.56 h 92.5 L 3034.64,115.559" /><path
         id="path506"
         style="fill:#bdc1c2;fill-opacity:1;fill-rule:nonzero;stroke:none"
         d="m 3034.64,115.559 h -92.5 l 299.23,2364.881 h 92.5 l -33.53,-264.99 -5.38,-42.48 -4.14,-32.75 -20.56,-162.47 -2.4,-19 -3.47,-27.4 -7.04,-55.66 -5.38,-42.48 -4.14,-32.74 -47.39,-374.57 -5.38,-42.47 -3.27,-25.85 -28.67,-226.61 -29.21,-230.849 -0.32,-2.5 -14.28,-112.91 -12.01,-94.871 -30.14,-238.211 -0.31,-2.5 -42.21,-333.57" /><path
         id="path508"
         style="fill:#1d2a30;fill-opacity:1;fill-rule:nonzero;stroke:none"
         d="m 3455.22,2480.44 h -586.18 c -6.97,0 -13.42,4.57 -16.93,12 l -18.68,39.59 h 657.4 l -18.68,-39.59 c -3.51,-7.43 -9.96,-12 -16.93,-12" /><path
         id="path510"
         style="fill:#8e989b;fill-opacity:1;fill-rule:nonzero;stroke:none"
         d="m 3436.57,2480.44 h -567.53 c -6.97,0 -13.42,4.57 -16.93,12 l -9.79,20.75 h 639.62 l -3.15,-6.67 c -1.94,0.07 -3.88,0.13 -5.82,0.19 -2.3,0 -4.7,0.11 -7,0.21 l -0.5,0.1 c -0.3,0.01 -0.59,0.02 -0.89,0.02 -1.4,0 -2.81,-0.18 -4.21,-0.42 -10.6,-1.5 -19.8,-9.11 -22.8,-20.1 -0.5,-2 -0.9,-4 -1,-6 0,-0.03 0,-0.06 0,-0.08" /><path
         id="path512"
         style="fill:#1d2a30;fill-opacity:1;fill-rule:nonzero;stroke:none"
         d="M 3485.86,2513.19 H 2838.4 c -10.56,0 -19.12,8.56 -19.12,19.12 v 4.23 c 0,10.56 8.56,19.13 19.12,19.13 h 647.46 c 10.56,0 19.13,-8.57 19.13,-19.13 v -4.23 c 0,-10.56 -8.57,-19.12 -19.13,-19.12" /><path
         id="path514"
         style="fill:#45555c;fill-opacity:1;fill-rule:nonzero;stroke:none"
         d="M 3485.86,2513.19 H 2838.4 c -10.56,0 -19.12,8.56 -19.12,19.12 v 4.23 c 0,10.56 8.56,19.13 19.12,19.13 h 647.46 c 10.56,0 19.13,-8.57 19.13,-19.13 v -4.23 c 0,-10.56 -8.57,-19.12 -19.13,-19.12" /><path
         id="path516"
         style="fill:#f9a95e;fill-opacity:1;fill-rule:nonzero;stroke:none"
         d="m 3496.19,2490.35 -76.86,54.14 -36,-73.88 c 0,0 48.41,-45.4 97.79,-21.78 l 15.07,41.52" /><path
         id="path518"
         style="fill:#f9a95e;fill-opacity:1;fill-rule:nonzero;stroke:none"
         d="m 3352.93,2552.84 -13.64,-61.5 44.04,-20.73 36,73.88 -66.4,8.35" /><path
         id="path520"
         style="fill:#f8a461;fill-opacity:1;fill-rule:nonzero;stroke:none"
         d="m 4021.87,2661.31 c -15.1,-23.29 -30.5,-45.6 -46.6,-67.39 -12.1,-16.1 -24.5,-32.01 -37.5,-47.61 l -0.1,-0.09 c -3.9,-4.8 -7.9,-9.51 -11.9,-14.2 -7.9,-9.1 -15.9,-18.21 -24.3,-27.21 -10.4,-11.2 -21.3,-22.19 -33,-32.99 -2.2,-2.01 -4.4,-4 -6.7,-6 h -0.2 c -8.6,-7.9 -17.4,-15.3 -27.5,-22.7 -12.9,-9.1 -26.5,-18.3 -46.5,-25.9 -5,-2 -10,-3.41 -15.1,-4.6 -4.9,-1.2 -9.1,-1.8 -13.6,-2.6 -8.4,-1.1 -16.3,-1.81 -23.9,-2 -15.1,-0.5 -29.2,-0.1 -43.1,0.7 -27.6,1.5 -54.2,5.2 -80.5,9.1 -33.6,5.3 -66.6,11.9 -99.3,19.7 -12.1,2.8 -24.1,5.89 -36.1,9.1 -6.4,1.7 -12.7,3.5 -19.1,5.29 -12.9,3.61 -21.1,15.71 -20.3,28.61 0.1,2 0.5,4 1,6 3,10.99 12.2,18.6 22.8,20.1 1.7,0.3 3.4,0.5 5.1,0.4 l 0.5,-0.1 c 2.3,-0.1 4.7,-0.21 7,-0.21 15.1,-0.49 30.2,-1.09 45.3,-1.49 33.7,-1.2 67.3,-2.1 100.4,-2.6 25.1,-0.51 50.2,-0.2 74.1,0.79 12,0.51 23.7,1.51 34.3,3.01 10.5,1.4 20.4,3.6 23,5.69 4,2.01 11.9,7.5 19.4,14.11 6,5.2 12.3,11 18.5,17.3 1.8,1.7 3.5,3.5 5.2,5.29 3.5,3.61 6.9,7.41 10.2,11.21 8.6,9.39 16.9,19.19 25.2,29.3 3.7,4.6 7.5,9.2 11.2,13.89 18,22.7 35.9,46.61 53.2,70.71 11.8,16.3 23.4,32.79 34.6,49 l 0.6,1 c 5.8,8.4 13.5,14.8 22.2,18.79 14.2,-0.59 28.1,-1.19 41.9,-1.8 h 0.1 c 3.6,-0.2 7.3,-0.39 10.9,-0.59 1.1,-0.6 2.2,-1.3 3.3,-2.11 25.1,-17.3 31.7,-51.5 15.3,-76.9" /><path
         id="path522"
         style="fill:#4870c0;fill-opacity:1;fill-rule:nonzero;stroke:none"
         d="m 3995.77,2594.92 c -15.6,-23.1 -36.4,-48.61 -63.3,-76.6 l -0.1,-0.11 c -6.2,-6.39 -12.8,-12.99 -19.7,-19.69 l -11.2,6.29 -98.1,55.21 -9.1,5.1 c 0,0 6.4,9.49 15.9,23.89 11.9,18.01 28.8,43.71 44.5,67.9 12.2,19 23.6,37.1 31.1,49.91 9.5,16 20.7,28 32.4,36.99 10.9,-0.29 21.6,-0.69 32.2,-1.1 14.2,-0.59 28.1,-1.19 41.9,-1.8 h 0.1 c 3.6,-0.2 7.3,-0.39 10.9,-0.59 9.4,-0.4 18.7,-0.91 27.9,-1.4 12.6,-29.91 9.8,-77.2 -35.4,-144" /><path
         id="path524"
         style="fill:#c7d9f2;fill-opacity:1;fill-rule:nonzero;stroke:none"
         d="m 3912.67,2498.52 -11.2,6.29 -98.1,55.21 -9.1,5.1 c 0,0 6.4,9.49 15.9,23.89 11.9,18.01 28.8,43.71 44.5,67.9 12.2,19 23.6,37.1 31.1,49.91 9.5,16 20.7,28 32.4,36.99 10.9,-0.29 21.6,-0.69 32.2,-1.1 14.2,-0.59 28.1,-1.19 41.9,-1.8 h 0.1 c 3.6,-0.2 7.3,-0.39 10.9,-0.59 9.4,-0.4 18.7,-0.91 27.9,-1.4 4.04,-9.58 6.49,-20.94 6.48,-34.16 -0.02,-28.05 -11.16,-64.44 -41.88,-109.84 -15.6,-23.1 -36.4,-48.61 -63.3,-76.6 l -0.1,-0.11 c -6.2,-6.39 -12.8,-12.99 -19.7,-19.69" /><path
         id="path526"
         style="fill:#1d2a30;fill-opacity:1;fill-rule:nonzero;stroke:none"
         d="m 2533.41,117.262 -0.2,-1.703 -0.2,-0.797 -0.5,-1.512 -1.1,-1.898 -1.5,-1.993 c -3.2,-3.609 -8.8,-7.211 -16.4,-10.7106 -1.5,-0.6992 -3.2,-1.3867 -4.9,-2.0976 -4.8,-2 -10.2,-3.8906 -16.3,-5.8008 -3.8,-1.1992 -7.8,-2.2891 -12.1,-3.4883 -70.1,-18.9101 -204.5,-34.1133 -373.6,-42.5 -6.6,-0.3125 -13.2,-0.7109 -19.8,-1.0117 -10.8,-0.5 -21.7,-0.8984 -32.8,-1.3984 -11.1,-0.4024 -22.3,-0.8008 -33.7,-1.2032 -7.7,-0.2968 -15.5,-0.4882 -23.3,-0.7968 -18.5,-0.5 -37.2,-0.9922 -56.2,-1.3008 -2.3,-0.0899 -4.6,-0.1992 -6.9,-0.1992 -4.3,-0.1016 -8.6,-0.2032 -12.9,-0.2032 -4.2,-0.0976 -8.3,-0.1875 -12.5,-0.1875 -17.5,-0.3125 -35.2,-0.5117 -53,-0.6093 -2,0 -3.9,-0.0899 -5.8,-0.0899 h -0.1 c -14,-0.1015 -28.2,-0.1015 -42.4,-0.1015 -58.4,0 -115.3,0.6914 -169.7,2.1914 h -0.1 c -8.1,0.1992 -16.2,0.5 -24.2,0.8086 -7,0.0898 -14,0.3984 -20.9,0.5898 -10.9,0.3008 -21.6,0.6992 -32.2,1.1016 -14.2,0.5976 -28.1,1.207 -41.9,1.7968 h -0.1 c -3.6,0.211 -7.3,0.4024 -10.9,0.6133 -9.4,0.3985 -18.7,0.8867 -27.9,1.3867 -45.9,2.6016 -89,5.6016 -128.6,9.2032 -94.8,8.3984 -169.9,19.2968 -216.5,31.9101 -1.4,0.3985 -2.7,0.6875 -4,1.0899 -1.5,0.3984 -3,0.7968 -4.4,1.2968 -7.5,2.211 -14,4.5 -19.7,6.7032 -2.1,0.9101 -4.1,1.707 -5.9,2.6093 -3.3,1.5981 -6.2,3.0901 -8.7,4.6871 -1,0.602 -1.9,1.204 -2.7,1.911 l -2.2,1.703 -2.1,2.097 -1.5,1.891 c -0.8,1.199 -1.3,2.309 -1.6,3.512 l -0.3,1.09 -0.1,1.41 c 0,32.59 178.3,60.59 433.7,72.898 6.8,0.289 13.6,0.59 20.5,0.988 9.1,0.313 18.3,0.711 27.6,1.114 13.9,0.488 28,0.988 42.4,1.488 7.5,0.211 15.2,0.5 22.9,0.699 17.7,0.5 35.6,0.903 53.8,1.301 h 2.9 c 5.1,0 10.3,0.102 15.5,0.301 3.5,0 7,0.097 10.5,0.097 15.8,0.313 31.7,0.403 47.8,0.5 h 0.1 c 1.5,0 3.1,0.102 4.6,0 h 0.1 c 14.5,0.211 29.1,0.211 43.8,0.211 59.2,0 116.7,-0.808 171.8,-2.211 13.5,-0.398 26.9,-0.796 40.1,-1.296 5.7,-0.204 11.4,-0.403 17,-0.602 h 0.2 l 1.5,-0.09 c 6.3,-0.211 12.4,-0.398 18.6,-0.711 4.1,-0.09 8.1,-0.301 12.2,-0.488 10.7,-0.402 21.2,-0.902 31.6,-1.41 h 0.1 c 10,-0.5 19.9,-1 29.7,-1.492 57.2,-3.11 110.2,-7.008 157.6,-11.61 150.7,-14.597 245.8,-35.89 245.8,-59.687" /><path
         id="path528"
         style="fill:#fbfcfc;fill-opacity:1;fill-rule:nonzero;stroke:none"
         d="m 2480.23,87.2305 c -0.02,0 -0.04,0.0078 -0.06,0.0078 0.01,0.0117 0.03,0.0117 0.04,0.0234 4.3,1.1992 8.3,2.2891 12.1,3.4883 6.1,1.9102 11.5,3.8008 16.3,5.8008 1.7,0.7109 3.4,1.3984 4.9,2.0976 7.6,3.4996 13.2,7.1016 16.4,10.7106 l 1.5,1.993 1.1,1.898 0.5,1.512 0.2,0.797 0.2,1.703 c 0,2.367 -0.94,4.707 -2.79,7.027 1.87,-2.328 2.82,-4.68 2.82,-7.059 0,-10.609 -18.9,-20.8003 -53.21,-29.9995" /><path
         id="path530"
         style="fill:#758288;fill-opacity:1;fill-rule:nonzero;stroke:none"
         d="m 2480.17,87.2383 c -42.6,11.4922 -109.08,21.5897 -192.53,29.6837 -44.54,4.297 -93.91,8.019 -147.13,11.027 v 0 c 0.79,5.692 1.16,11.09 1.17,16.223 0.01,18.297 -4.63,33.039 -11.65,44.359 57.22,-3.109 110.16,-7.031 157.61,-11.609 135.63,-13.133 226.22,-31.703 242.98,-52.633 1.85,-2.32 2.79,-4.66 2.79,-7.027 l -0.2,-1.703 -0.2,-0.797 -0.5,-1.512 -1.1,-1.898 -1.5,-1.993 c -3.2,-3.609 -8.8,-7.211 -16.4,-10.7106 -1.5,-0.6992 -3.2,-1.3867 -4.9,-2.0976 -4.8,-2 -10.2,-3.8906 -16.3,-5.8008 -3.8,-1.1992 -7.8,-2.2891 -12.1,-3.4883 -0.01,-0.0117 -0.03,-0.0117 -0.04,-0.0234" /><path
         id="path532"
         style="fill:#fbfcfc;fill-opacity:1;fill-rule:nonzero;stroke:none"
         d="m 1134.23,87.2305 c -1.56,0.4179 -3.08,0.8398 -4.58,1.2695 0.19,-0.0508 0.37,-0.1016 0.56,-0.1484 1.3,-0.4024 2.6,-0.6914 4,-1.0899 0.02,-0.0117 0.04,-0.0234 0.06,-0.0234 -0.01,-0.0078 -0.02,-0.0078 -0.04,-0.0078 m -7.69,2.1679 c -6.72,1.9805 -12.75,4 -18.04,6.043 5.11,-1.9101 10.84,-3.8906 17.31,-5.793 0.24,-0.0898 0.49,-0.1679 0.73,-0.25 m -25.89,9.3438 c -3.72,1.7068 -6.93,3.4488 -9.61,5.1988 0.15,-0.089 0.31,-0.191 0.47,-0.293 2.5,-1.597 5.4,-3.089 8.7,-4.6871 0.14,-0.082 0.29,-0.1523 0.44,-0.2187 m -11.12,6.2268 c -1.02,0.73 -1.96,1.461 -2.8,2.191 l 2.08,-1.601 c 0.23,-0.207 0.47,-0.399 0.72,-0.59 m -3.03,2.402 c -1.4,1.25 -2.53,2.5 -3.4,3.77 l 1.41,-1.782 1.99,-1.988 m -4.54,5.77 c -0.37,0.82 -0.63,1.64 -0.78,2.468 l 0.23,-0.847 c 0.14,-0.563 0.32,-1.09 0.55,-1.621 m -0.88,3.211 c -0.02,0.14 -0.03,0.289 -0.03,0.429 l 0.03,-0.429" /><path
         id="path534"
         style="fill:#758288;fill-opacity:1;fill-rule:nonzero;stroke:none"
         d="m 1134.27,87.2383 c -0.02,0 -0.04,0.0117 -0.06,0.0234 -1.4,0.3985 -2.7,0.6875 -4,1.0899 -0.19,0.0468 -0.37,0.0976 -0.56,0.1484 -1.05,0.3008 -2.09,0.6016 -3.11,0.8984 -0.24,0.0821 -0.49,0.1602 -0.73,0.25 -6.47,1.9024 -12.2,3.8829 -17.31,5.793 -2.83,1.0899 -5.45,2.1875 -7.85,3.3008 -0.15,0.0664 -0.3,0.1367 -0.44,0.2187 -3.3,1.5981 -6.2,3.0901 -8.7,4.6871 -0.16,0.102 -0.32,0.204 -0.47,0.293 -0.52,0.34 -1.03,0.68 -1.51,1.028 -0.25,0.191 -0.49,0.383 -0.72,0.59 l -2.08,1.601 c -0.08,0.07 -0.15,0.141 -0.23,0.211 l -1.99,1.988 -1.41,1.782 c -0.45,0.66 -0.83,1.328 -1.14,2 -0.23,0.531 -0.41,1.058 -0.55,1.621 l -0.23,0.847 c -0.04,0.25 -0.08,0.493 -0.1,0.743 l -0.03,0.429 c -0.01,0.149 -0.02,0.301 -0.02,0.449 0,32.59 178.31,60.59 433.71,72.899 6.79,0.293 13.6,0.59 20.49,0.992 9.11,0.309 18.3,0.711 27.61,1.109 13.91,0.54 28.02,1.032 42.32,1.481 -34.44,-32.039 -61.4,-62.172 -61.4,-62.172 l 0.02,-0.008 c -0.01,0 -0.02,-0.011 -0.02,-0.011 l 0.1,-0.079 c -2.88,-0.121 -5.76,-0.222 -8.63,-0.32 -6.89,-0.402 -13.7,-0.699 -20.49,-0.992 -172.27,-8.297 -309.35,-23.699 -380.47,-42.8907" /><path
         id="path536"
         style="fill:#f8a461;fill-opacity:1;fill-rule:nonzero;stroke:none"
         d="m 1746.11,154.148 c -5.5,-6.597 -10.6,-12.289 -15.7,-17.796 -2.6,-2.704 -5.1,-5.391 -7.8,-8.102 -4.8,-4.898 -9.5,-9.691 -14.4,-14.398 -3.2,-3.192 -6.5,-6.301 -9.8,-9.403 -16.7,-15.3982 -34.5,-29.9998 -53.7,-43.5974 -1.1,-0.6914 -2.1,-1.4922 -3.2,-2.2032 -2.8,-2 -5.7,-3.8867 -8.7,-5.8984 h -0.1 c -6.3,-4.1914 -12.8,-8.3008 -19.5,-12.0898 -7,0.0898 -14,0.3984 -20.9,0.5898 -10.9,0.3008 -21.6,0.6992 -32.2,1.1016 -14.2,0.5976 -28.1,1.207 -41.9,1.7968 h -0.1 c -3.6,0.211 -7.3,0.4024 -10.9,0.6133 -9.4,0.3985 -18.7,0.8867 -27.9,1.3867 -45.9,2.6016 -89,5.6016 -128.6,9.2032 5.2,1.6992 10.4,3.2968 15.6,5 39.9,13 80.2,25.207 119,38 9.7,3.2964 19.3,6.5004 28.2,9.8084 9.8,3.391 14.8,5.988 22,10.09 4.4,2.602 9,5.5 13.6,8.609 2.4,1.602 4.9,3.301 7.4,5.192 h 0.1 c 7.2,5.097 14.4,10.801 21.5,16.699 14.4,11.809 28.5,24.809 42.5,38.301 2.5,2.5 5,4.898 7.5,7.398 4.5,4.301 8.9,8.61 13.2,13.102 l 19.6,20.301 1.2,1.296 c 12.7,13.204 30.3,18.911 47.2,17 11.8,-1.296 23.3,-6.386 32.5,-15.296 9.8,-9.5 15.5,-21.602 16.8,-34.204 h 0.1 c 1.7,-14.789 -2.5,-30.296 -12.6,-42.5" /><path
         id="path538"
         style="fill:#4870c0;fill-opacity:1;fill-rule:nonzero;stroke:none"
         d="m 1723.67,268.941 c -55.76,1.27 -179.91,-137.421 -179.91,-137.421 l 102.5,-90.77 c 0,0 91.54,39.5586 113.96,105.5 22.42,65.93 -36.55,122.691 -36.55,122.691" /><path
         id="path540"
         style="fill:#ffffff;fill-opacity:1;fill-rule:nonzero;stroke:none"
         d="m 1628.26,214.398 c 33.82,29.043 70.42,54.551 94.62,54.551 0.25,0 0.49,-0.008 0.73,-0.008 v 0 c -0.23,0 -0.47,0 -0.71,0 -24.18,0 -60.76,-25.5 -94.59,-54.531 l -0.05,-0.012" /><path
         id="path542"
         style="fill:#fefeff;fill-opacity:1;fill-rule:nonzero;stroke:none"
         d="m 1605.2,193.75 c 7.41,6.891 15.16,13.871 23.06,20.648 l 0.05,0.012 c -7.91,-6.789 -15.66,-13.769 -23.07,-20.66 -0.01,0 -0.02,0 -0.03,0 h -0.01" /><path
         id="path544"
         style="fill:#bdc1c2;fill-opacity:1;fill-rule:nonzero;stroke:none"
         d="m 1605.16,193.711 c 0.01,0.008 0.03,0.031 0.04,0.039 h 0.01 c 0.01,0 0.02,0 0.03,0 -0.01,-0.008 -0.03,-0.031 -0.04,-0.039 -0.02,0 -0.03,0 -0.04,0" /><path
         id="path546"
         style="fill:#dadddc;fill-opacity:1;fill-rule:nonzero;stroke:none"
         d="m 1543.78,131.531 -0.02,0.008 c 0,0 26.96,30.133 61.4,62.172 0.01,0 0.02,0 0.04,0 -34.07,-31.691 -60.83,-61.52 -61.42,-62.18" /><path
         id="path548"
         style="fill:#c7d9f2;fill-opacity:1;fill-rule:nonzero;stroke:none"
         d="m 1618.76,65.1406 v 0 l -74.98,66.3904 c 0.59,0.66 27.35,30.489 61.42,62.18 0.01,0.008 0.03,0.031 0.04,0.039 7.41,6.891 15.16,13.871 23.07,20.66 33.83,29.031 70.41,54.531 94.59,54.531 0.24,0 0.48,0 0.71,0 v -0.089 c -0.4,-0.5 -2,-2.793 -4.7,-6.801 -1.1,-1.801 -2.4,-3.801 -3.9,-6.199 -1.5,-2.391 -3.2,-5.192 -4.9,-8.301 l -0.8,-1.403 c -1.5,-2.687 -3.1,-5.699 -4.9,-8.886 -1.3,-2.614 -2.7,-5.211 -4.2,-8.114 -0.7,-1.398 -1.4,-2.898 -2.2,-4.296 -4.2,-8.5 -8.7,-18.102 -13.3,-29.102 -1.9,-4.602 -3.9,-9.398 -6,-14.5 v -0.102 c -1.1,-2.687 -2.2,-5.5 -3.3,-8.398 -1.2,-3.199 -2.5,-6.602 -3.7,-10.09 -1.1,-2.898 -2.2,-6.012 -3.3,-9.101 v -0.098 c -0.7,-2 -1.4,-4.012 -2.1,-6.109 v -0.032 c -16.85,-19.14 -37.02,-47.4684 -47.55,-82.1794" /><path
         id="path550"
         style="fill:#b1c2e8;fill-opacity:1;fill-rule:nonzero;stroke:none"
         d="m 1638.91,47.2617 -20.15,17.8789 c 10.53,34.711 30.7,63.0394 47.55,82.1794 v -0.058 l -0.1,-0.114 c -1.3,-3.796 -2.6,-7.699 -3.9,-11.796 v -0.102 c -0.6,-1.699 -1.1,-3.391 -1.7,-5.09 -1.7,-5.512 -3.3,-11.012 -5.1,-16.808 -4.8,-16.8012 -9.5,-35.0004 -14,-54.7036 l -0.5,-2.1875 c -0.4,-1.5117 -0.7,-3 -1,-4.5117 -0.4,-1.5 -0.7,-2.9883 -1.1,-4.5976 v -0.0899" /><path
         id="path552"
         style="fill:#4870c0;fill-opacity:1;fill-rule:nonzero;stroke:none"
         d="m 2109.11,210.449 v -0.199 h -0.1 v -0.09 c -0.6,-1.308 -1.2,-2.5 -1.7,-3.808 -1.6,-3.5 -3.1,-6.993 -4.6,-10.602 -0.9,-1.898 -1.7,-3.699 -2.4,-5.699 l -0.5,-1.199 c -0.7,-1.5 -1.4,-3 -1.9,-4.602 -1.7,-4 -3.3,-8.102 -4.9,-12.301 -2,-5.199 -3.9,-10.488 -5.8,-15.801 l -0.3,-0.699 c -1.4,-3.801 -2.7,-7.597 -4,-11.488 -1.4,-3.91 -2.7,-7.813 -3.9,-11.699 l -0.4,-1.203 c -1.2,-3.61 -2.4,-7.207 -3.5,-10.809 -2.3,-7.59 -4.6,-15.199 -6.8,-22.9883 l -0.6,-2.1015 c -4.8,-17.0118 -9.3,-34.3086 -13.5,-51.6993 l -0.2,-1.1093 c -11.1,-0.4024 -22.3,-0.8008 -33.7,-1.2032 -7.7,-0.2968 -15.5,-0.4882 -23.3,-0.7968 -18.5,-0.5 -37.2,-0.9922 -56.2,-1.3008 -2.3,-0.0899 -4.6,-0.1992 -6.9,-0.1992 -4.3,-0.1016 -8.6,-0.2032 -12.9,-0.2032 -4.2,-0.0976 -8.3,-0.1875 -12.5,-0.1875 -17.5,-0.3125 -35.2,-0.5117 -53,-0.6093 -2,0 -3.9,-0.0899 -5.8,-0.0899 h -0.1 c -14,-0.1015 -28.2,-0.1015 -42.4,-0.1015 -58.4,0 -115.3,0.6914 -169.7,2.1914 h -0.1 c 0.5,2.5 1,5 1.5,7.4101 v 0.0899 c 0.4,1.6093 0.7,3.0976 1.1,4.5976 0.3,1.5117 0.6,3 1,4.5117 l 0.5,2.1875 c 4.5,19.7032 9.2,37.9024 14,54.7036 1.8,5.796 3.4,11.296 5.1,16.808 0.6,1.699 1.1,3.391 1.7,5.09 v 0.102 c 1.3,4.097 2.6,8 3.9,11.796 l 0.1,0.114 v 0.09 c 0.7,2.097 1.4,4.109 2.1,6.109 v 0.098 c 1.1,3.089 2.2,6.203 3.3,9.101 1.2,3.488 2.5,6.891 3.7,10.09 1.1,2.898 2.2,5.711 3.3,8.398 v 0.102 c 2.1,5.102 4.1,9.898 6,14.5 4.6,11 9.1,20.602 13.3,29.102 0.8,1.398 1.5,2.898 2.2,4.296 1.5,2.903 2.9,5.5 4.2,8.114 1.8,3.187 3.4,6.199 4.9,8.886 l 0.8,1.403 c 1.7,3.109 3.4,5.91 4.9,8.301 1.5,2.398 2.8,4.398 3.9,6.199 2.7,4.008 4.3,6.301 4.7,6.801 v 0.109 h 0.1 c 0,0 41.6,4.5 89.3,2.898 6.3,-0.109 12.7,-0.507 19.2,-0.898 5.9,-0.402 12.4,-1.012 19.2,-1.813 14.3,-1.597 30.2,-3.796 46.7,-6.488 10.4,-1.699 20.9,-3.512 31.4,-5.398 10.5,-1.91 20.9,-3.801 30.9,-5.801 1.8,-0.313 3.5,-0.711 5.3,-1.109 h 0.1 c 7.9,-1.5 15.6,-3.09 22.7,-4.602 4.9,-0.988 9.7,-2.102 14.6,-3.301 2.5,-0.59 4.9,-1.097 7.3,-1.789 2.4,-0.609 4.8,-1.211 7.3,-1.808 9.1,-2.301 18.1,-4.801 26.6,-7.204 2.8,-0.796 5.6,-1.699 8.3,-2.5 5.4,-1.597 10.6,-3.187 15.5,-4.789 4.9,-1.507 9.4,-3.007 13.6,-4.41 15.5,-5.097 25.8,-8.89 27.3,-9.39 l 0.1,-0.11" /><path
         id="path554"
         style="fill:#fefeff;fill-opacity:1;fill-rule:nonzero;stroke:none"
         d="m 2109.01,210.16 v 0 0 0.09 h 0.1 v 0.199 h 0.1 l -0.1,-0.199 h -0.1 v -0.09 0" /><path
         id="path556"
         style="fill:#ffffff;fill-opacity:1;fill-rule:nonzero;stroke:none"
         d="m 2044.31,231.648 c -8.5,2.403 -17.5,4.903 -26.6,7.204 -2.5,0.597 -4.9,1.199 -7.3,1.808 2.5,-0.5 4.9,-1.109 7.3,-1.699 9.1,-2.313 18.1,-4.813 26.6,-7.313" /><path
         id="path558"
         style="fill:#c7d9f2;fill-opacity:1;fill-rule:nonzero;stroke:none"
         d="m 1807.21,37.6602 c -58.4,0 -115.3,0.6914 -169.7,2.1914 0.5,2.5 1,4.9101 1.5,7.2968 v 0.1133 c 0.7,3.1875 1.3,6.1992 2,9.1992 l 0.5,2.1875 c 4.5,19.7032 9.2,37.9024 14,54.7036 1.8,5.796 3.4,11.296 5.1,16.808 0.6,1.699 1.1,3.391 1.7,5.09 v 0.102 c 1.3,4.097 2.6,8 3.9,11.796 l 0.1,0.114 v 0.09 c 0.7,2.097 1.4,4.109 2.1,6.109 v 0.098 c 1.1,3.089 2.2,6.203 3.3,9.101 1.2,3.488 2.5,6.891 3.7,10.09 1.1,2.898 2.2,5.711 3.3,8.398 v 0.102 c 2.1,5.102 4.1,9.898 6,14.5 h 0.1 c 4.6,11 9.1,20.602 13.2,29.102 0.8,1.398 1.5,2.898 2.2,4.296 1.5,2.903 2.9,5.5 4.2,8.114 1.8,3.187 3.4,6.199 4.9,8.886 l 0.8,1.403 c 1.8,3.109 3.5,5.91 4.9,8.301 1.5,2.398 2.8,4.398 3.9,6.199 2.7,4.008 4.3,6.301 4.7,6.801 l 0.1,0.109 c 0,0 29.99,3.238 68.24,3.238 5.24,0 10.65,-0.058 16.15,-0.199 -0.07,0 -0.15,0 -0.23,0 -5.29,0 -9.21,0.16 -9.21,0.16 0,0 19.77,-53.64 60.75,-61.789 3.51,-0.691 7.34,-1.012 11.44,-1.012 43.67,0 116.52,36.11 117.25,36.481 0.14,-0.031 0.28,-0.059 0.41,-0.09 4.9,-0.988 9.7,-2.102 14.6,-3.301 2.5,-0.59 4.9,-1.097 7.3,-1.789 v 0 c 2.4,-0.609 4.8,-1.211 7.3,-1.808 9.1,-2.301 18.1,-4.801 26.6,-7.204 v 0 c 2.8,-0.796 5.6,-1.699 8.3,-2.5 5.4,-1.597 10.6,-3.187 15.5,-4.789 4.9,-1.507 9.4,-3.007 13.6,-4.41 15.5,-5.097 25.8,-8.89 27.3,-9.39 l 0.1,-0.11 v -0.199 h -0.1 v -0.09 0 c 0,0 -2.28,0.219 -6.27,0.219 -11.94,0 -39.16,-1.969 -66.43,-17.629 h -0.1 c -16.6,-9.602 -33.2,-24.199 -46.4,-46.5 -2.1,-3.488 -4.5,-7.5 -7.1,-11.699 -6.8,-11.199 -15.2,-24.391 -24,-38.1994 v 0 c -13.2,-9.7032 -35,-28.8008 -50.2,-57.8907 v 0 c -17.5,-0.3125 -35.2,-0.5117 -53,-0.6093 -2,0 -3.9,-0.0899 -5.8,-0.0899 h -0.1 c -14,-0.1015 -28.2,-0.1015 -42.4,-0.1015" /><path
         id="path560"
         style="fill:#f9a95e;fill-opacity:1;fill-rule:nonzero;stroke:none"
         d="m 1928.27,391.09 c 0,0 3.15,-106.352 13.26,-122.141 10.12,-15.789 46.58,-23.109 46.58,-23.109 0,0 -87.72,-43.61 -128.7,-35.469 -40.98,8.149 -60.75,61.789 -60.75,61.789 0,0 28.67,-1.16 35.6,2.801 6.92,3.961 -5.44,74.348 -5.44,74.348 l 99.45,41.781" /><path
         id="path562"
         style="fill:#cecdcc;fill-opacity:1;fill-rule:nonzero;stroke:none"
         d="m 1938.29,277.781 c -1.19,4.758 -2.26,10.848 -3.21,17.719 l 0.01,0.012 c 0.95,-6.871 2.01,-12.961 3.2,-17.731" /><path
         id="path564"
         style="fill:#ca8849;fill-opacity:1;fill-rule:nonzero;stroke:none"
         d="m 1930.72,276.012 c -38.6,0 -80.59,27.328 -93.5,46.84 l -3.57,-5.141 c -0.55,4.07 -1.12,8.059 -1.66,11.758 3.13,-2.86 6.25,-5.571 9.4,-8.11 v 0 c 18.18,-14.679 37.11,-23.898 61.89,-26.929 4.36,-0.532 8.64,-0.801 12.82,-0.801 6.57,0 12.91,0.652 18.98,1.871 0.95,-6.871 2.02,-12.961 3.21,-17.719 0.12,-0.472 0.24,-0.929 0.36,-1.371 -2.62,-0.269 -5.27,-0.398 -7.93,-0.398" /><path
         id="path566"
         style="fill:#1d2a30;fill-opacity:1;fill-rule:nonzero;stroke:none"
         d="m 1894.32,569.781 c 27.18,-14.14 66.11,-60.16 23.44,-75.261 -42.67,-15.11 -70.17,99.57 -23.44,75.261" /><path
         id="path568"
         style="fill:#f9a95e;fill-opacity:1;fill-rule:nonzero;stroke:none"
         d="m 1773.38,392.852 c 26.88,-30.231 46.96,-54.473 68.01,-71.493 18.18,-14.679 37.11,-23.898 61.89,-26.929 80.56,-9.969 131.8,75.152 99.56,145.461 -3.53,7.66 -7.7,15.558 -12.58,23.48 -35.02,57.84 -102.52,118.52 -169.34,98.719 -74.91,-22.149 -97.52,-113.051 -47.54,-169.238" /><path
         id="path570"
         style="fill:#1d2a30;fill-opacity:1;fill-rule:nonzero;stroke:none"
         d="m 1806.31,397.57 3.24,-11.75 c 0,0 9.79,-34.84 31.84,-64.461 18.18,-14.679 37.11,-23.898 61.89,-26.929 80.56,-9.969 131.8,75.152 99.56,145.461 -3.53,7.66 -7.7,15.558 -12.58,23.48 0,0 6.05,-28.121 0.8,-41.25 0,0 -30.04,7.668 -44.72,-4.621 0,0 -31.87,8.699 -58.87,-24.961 0,0 -40.54,-28.457 -81.16,5.031" /><path
         id="path572"
         style="fill:#8e989b;fill-opacity:1;fill-rule:nonzero;stroke:none"
         d="m 1916.1,293.629 c -4.18,0 -8.46,0.269 -12.82,0.801 -24.78,3.031 -43.71,12.25 -61.89,26.929 -22.05,29.621 -31.84,64.461 -31.84,64.461 l -3.24,11.75 c 15.05,-12.398 30.08,-16.308 43.05,-16.308 22.04,0 38.11,11.277 38.11,11.277 17.8,22.191 37.71,25.973 49.22,25.973 5.95,0 9.65,-1.012 9.65,-1.012 6.53,5.469 16.1,6.98 24.72,6.98 10.74,0 20,-2.359 20,-2.359 1.59,3.981 2.15,9.328 2.15,14.848 -0.01,12.73 -2.95,26.402 -2.95,26.402 4.88,-7.922 9.05,-15.82 12.58,-23.48 6.67,-14.551 9.77,-29.731 9.77,-44.571 0.01,-26.55 -9.88,-52 -26.93,-70.808 -0.76,-0.84 -1.55,-1.68 -2.34,-2.5 -16.84,-17.321 -40.04,-28.383 -67.24,-28.383" /><path
         id="path574"
         style="fill:#1d2a30;fill-opacity:1;fill-rule:nonzero;stroke:none"
         d="m 1689.67,430.242 c -36.27,30.43 -1.86,74.539 36.12,89.567 4.98,1.98 8.32,4.863 10.41,8.23 l 45.08,-69.277 c -4.11,-1.973 -8.18,-3.832 -12.04,-5.321 0,0 52.63,-46.671 47.52,-93.05 -73.68,-20.352 -144.69,17.5 -127.09,69.851" /><path
         id="path576"
         style="fill:#f9a95e;fill-opacity:1;fill-rule:nonzero;stroke:none"
         d="m 1789.25,325.629 c 16.63,-11.488 37.01,-14.16 53.32,-10.758 1.89,0.399 3.67,0.891 5.23,1.457 l 0.09,0.113 c 15.19,14.258 -29.82,64.571 -32.12,67.168 l -0.11,0.09 c -10.21,2.5 -20.51,1.949 -28.94,-3.988 -19.8,-13.832 -16.5,-40.91 2.53,-54.082" /><path
         id="path578"
         style="fill:#1d2a30;fill-opacity:1;fill-rule:nonzero;stroke:none"
         d="m 1875.55,447.621 c 3.78,-4.82 9.37,-6.691 12.5,-4.191 3.13,2.511 2.61,8.441 -1.17,13.261 -3.77,4.809 -9.38,6.688 -12.5,4.188 -3.13,-2.508 -2.61,-8.438 1.17,-13.258" /><path
         id="path580"
         style="fill:#1d2a30;fill-opacity:1;fill-rule:nonzero;stroke:none"
         d="m 1929.65,490.91 c 3.78,-4.82 9.38,-6.691 12.51,-4.191 3.13,2.5 2.6,8.441 -1.17,13.25 -3.78,4.832 -9.38,6.703 -12.51,4.191 -3.13,-2.5 -2.6,-8.441 1.17,-13.25" /><path
         id="path582"
         style="fill:#ec782f;fill-opacity:1;fill-rule:nonzero;stroke:none"
         d="m 1914.33,474.75 c 0,0 32.13,-17.828 54.41,-21.141 -2.46,-14.211 -19.71,-22.078 -19.71,-22.078 l -34.7,43.219" /><path
         id="path584"
         style="fill:#1d2a30;fill-opacity:1;fill-rule:nonzero;stroke:none"
         d="m 1854.11,484.852 c -1.1,-0.614 -1.84,-1.782 -1.85,-3.141 -0.17,-16.109 -11.21,-23.449 -11.32,-23.52 -1.67,-1.082 -2.16,-3.32 -1.1,-5 1.06,-1.671 3.28,-2.14 4.95,-1.082 0.59,0.383 14.42,9.571 14.62,29.563 0.02,2 -1.56,3.617 -3.54,3.629 l -1.76,-0.449" /><path
         id="path586"
         style="fill:#1d2a30;fill-opacity:1;fill-rule:nonzero;stroke:none"
         d="m 1938.52,530.059 1.22,1.679 c 0.67,1.871 -0.3,3.942 -2.16,4.621 -18.68,6.711 -31.83,-3.328 -32.48,-3.711 -1.57,-1.207 -1.88,-3.476 -0.68,-5.058 1.19,-1.578 3.42,-1.899 4.99,-0.699 0.54,0.429 10.77,8.031 25.76,2.648 1.17,-0.418 2.42,-0.18 3.35,0.52" /><path
         id="path588"
         style="fill:#1d2a30;fill-opacity:1;fill-rule:nonzero;stroke:none"
         d="m 1948.45,365.719 c 1.83,0.703 3.73,1.621 5.62,2.562 l 4.89,39.418 c 0,0 -2.34,0.071 -6.01,-0.121 -12.47,-0.316 -40.13,-2.758 -47.49,-16.93 -0.64,-1.296 -1.3,-3.039 -1.86,-5.097 -1.43,-5.629 -1.87,-13.391 1.32,-19.211 4.5,-8.449 16.52,-12.801 43.53,-0.621" /><path
         id="path590"
         style="fill:#ffffff;fill-opacity:1;fill-rule:nonzero;stroke:none"
         d="m 1903.6,385.551 48.07,17.398 1.28,4.629 c -12.47,-0.316 -40.13,-2.758 -47.49,-16.93 -0.64,-1.296 -1.3,-3.039 -1.86,-5.097" /><path
         id="path592"
         style="fill:#f03e4c;fill-opacity:1;fill-rule:nonzero;stroke:none"
         d="m 1948.45,365.719 c -8.48,13.953 -30.86,6.773 -43.53,0.621 4.5,-8.449 16.52,-12.801 43.53,-0.621" /><path
         id="path594"
         style="fill:#1d2a30;fill-opacity:1;fill-rule:nonzero;stroke:none"
         d="m 1689.67,430.242 c -14.75,11.34 -36.42,42.117 -7.42,74.067 29,31.933 63.37,47.761 47.16,70.98 -16.2,23.231 12.47,42.973 32.64,27.781 0,0 47.54,77.762 81.31,18.051 0,0 33.13,22.789 53.4,-1.68 20.27,-24.449 24.57,-50.691 -2.14,-60.082 -26.71,-9.41 -29.25,-12.238 -24.62,-27.699 4.62,-15.469 -18.6,-28.328 -18.6,-28.328 0,0 14.36,9.188 6.23,20.277 0,0 -1.91,-19.718 -27.82,-27.859 -25.9,-8.141 -13.93,-33.352 -13.93,-33.352 0,0 -13.83,-5.418 -16.91,14.372 0,0 -10.8,-44.149 -39.45,-55.129 -28.65,-10.969 -47.54,-8.539 -69.85,8.601" /><path
         id="path596"
         style="fill:#b1c2e8;fill-opacity:1;fill-rule:nonzero;stroke:none"
         d="m 1908.51,38.4609 c 15.2,29.0899 37,48.1875 50.2,57.8907 v 0 0 c -12.9,-19.8907 -26.6,-40.9024 -37.7,-57.7032 v 0 c -4.2,-0.0976 -8.3,-0.1875 -12.5,-0.1875" /><path
         id="path598"
         style="fill:#f8a461;fill-opacity:1;fill-rule:nonzero;stroke:none"
         d="m 2134.81,128.25 c -0.5,-9.5 -3.4,-19 -8.9,-27.5 -12.7,-19.6016 -25.6,-38.6016 -39.1,-57 -10.8,-0.5 -21.7,-0.8984 -32.8,-1.3984 -11.1,-0.4024 -22.3,-0.8008 -33.7,-1.2032 -7.7,-0.2968 -15.5,-0.4882 -23.3,-0.7968 -18.5,-0.5 -37.2,-0.9922 -56.2,-1.3008 1.1,1.1992 2,2.4101 3,3.6094 18,22.6914 35.9,46.5898 53.2,70.6918 4.9,6.699 9.7,13.507 14.4,20.296 6.9,9.602 13.5,19.204 20.1,28.704 l 0.7,1 c 14.9,21.597 42.2,29.5 65.7,20.898 4.4,-1.59 8.7,-3.801 12.7,-6.59 16.7,-11.512 25.2,-30.512 24.2,-49.41" /><path
         id="path600"
         style="fill:#4870c0;fill-opacity:1;fill-rule:nonzero;stroke:none"
         d="m 2140.51,127.949 c -3.2,-23 -13.4,-50.5974 -33.9,-83.1873 -6.6,-0.3125 -13.2,-0.7109 -19.8,-1.0117 -10.8,-0.5 -21.7,-0.8984 -32.8,-1.3984 -11.1,-0.4024 -22.3,-0.8008 -33.7,-1.2032 -7.7,-0.2968 -15.5,-0.4882 -23.3,-0.7968 -18.5,-0.5 -37.2,-0.9922 -56.2,-1.3008 -2.3,-0.0899 -4.6,-0.1992 -6.9,-0.1992 -4.3,-0.1016 -8.6,-0.2032 -12.9,-0.2032 11.1,16.8008 24.8,37.8125 37.7,57.7032 8.8,13.8084 17.2,27.0004 24,38.1994 2.6,4.199 5,8.211 7.1,11.699 13.2,22.301 29.8,36.898 46.4,46.5 h 0.1 c 36.4,20.898 72.7,17.41 72.7,17.41 7.7,-5 15.2,-12.101 21,-21.601 9,-14.508 14.1,-34.598 10.5,-60.61" /><path
         id="path602"
         style="fill:#c7d9f2;fill-opacity:1;fill-rule:nonzero;stroke:none"
         d="m 1921.01,38.6484 c 11.1,16.8008 24.8,37.8125 37.7,57.7032 8.8,13.8084 17.2,27.0004 24,38.1994 2.6,4.199 5,8.211 7.1,11.699 13.2,22.301 29.8,36.898 46.4,46.5 h 0.1 c 27.27,15.66 54.49,17.629 66.43,17.629 3.99,0 6.27,-0.219 6.27,-0.219 7.7,-5 15.2,-12.101 21,-21.601 7.03,-11.329 11.68,-26.079 11.67,-44.387 -0.01,-5.133 -0.38,-10.531 -1.17,-16.223 v 0 c -3.2,-23 -13.4,-50.5974 -33.9,-83.1873 -6.6,-0.3125 -13.2,-0.7109 -19.8,-1.0117 -10.8,-0.5 -21.7,-0.8984 -32.8,-1.3984 -11.1,-0.4024 -22.3,-0.8008 -33.7,-1.2032 -7.7,-0.2968 -15.5,-0.4882 -23.3,-0.7968 -18.5,-0.5 -37.2,-0.9922 -56.2,-1.3008 -2.3,-0.0899 -4.6,-0.1992 -6.9,-0.1992 -4.3,-0.1016 -8.6,-0.2032 -12.9,-0.2032" /></g></g></svg>
