<?xml version="1.0" encoding="utf-8"?>
<!-- Generator: Adobe Illustrator 24.0.2, SVG Export Plug-In . SVG Version: 6.00 Build 0)  -->
<svg version="1.1" id="Capa_1" xmlns="http://www.w3.org/2000/svg" xmlns:xlink="http://www.w3.org/1999/xlink" x="0px" y="0px"
	 viewBox="0 0 48 48" style="enable-background:new 0 0 48 48;" xml:space="preserve">
<style type="text/css">
	.st0{fill:#CFD8DC;}
	.st1{fill:#185190;}
	.st2{fill:#143F66;}
	.st3{fill:#B0BEC5;}
	.st4{fill:#90A4AE;}
</style>
<path class="st0" d="M5,38V14h38v24c0,2.2-1.8,4-4,4H9C6.8,42,5,40.2,5,38z"/>
<path class="st1" d="M43,10v6H5v-6c0-2.2,1.8-4,4-4h30C41.2,6,43,7.8,43,10z"/>
<g>
	<circle class="st2" cx="33" cy="10" r="3"/>
	<circle class="st2" cx="15" cy="10" r="3"/>
</g>
<g>
	<path class="st3" d="M33,3c-1.1,0-2,0.9-2,2v5c0,1.1,0.9,2,2,2c1.1,0,2-0.9,2-2V5C35,3.9,34.1,3,33,3z"/>
	<path class="st3" d="M15,3c-1.1,0-2,0.9-2,2v5c0,1.1,0.9,2,2,2s2-0.9,2-2V5C17,3.9,16.1,3,15,3z"/>
</g>
<g>
	<rect x="13" y="20" class="st4" width="4" height="4"/>
	<rect x="19" y="20" class="st4" width="4" height="4"/>
	<rect x="25" y="20" class="st4" width="4" height="4"/>
	<rect x="31" y="20" class="st4" width="4" height="4"/>
	<rect x="13" y="26" class="st4" width="4" height="4"/>
	<rect x="19" y="26" class="st4" width="4" height="4"/>
	<rect x="25" y="26" class="st4" width="4" height="4"/>
	<rect x="31" y="26" class="st4" width="4" height="4"/>
	<rect x="13" y="32" class="st4" width="4" height="4"/>
	<rect x="19" y="32" class="st4" width="4" height="4"/>
	<rect x="25" y="32" class="st4" width="4" height="4"/>
	<rect x="31" y="32" class="st4" width="4" height="4"/>
</g>
</svg>
